<svg width="1163" height="814" viewBox="0 0 1163 814" fill="none" xmlns="http://www.w3.org/2000/svg">
<path d="M1162.23 709.028H0V709.609H1162.23V709.028Z" fill="#EBEBEB"/>
<path d="M1045.77 746.428H995.379V747.009H1045.77V746.428Z" fill="#EBEBEB"/>
<path d="M801.171 734.387H721.884V734.968H801.171V734.387Z" fill="#EBEBEB"/>
<path d="M1025.36 724.857H921.856V725.438H1025.36V724.857Z" fill="#EBEBEB"/>
<path d="M402.177 736.572H376.283V737.153H402.177V736.572Z" fill="#EBEBEB"/>
<path d="M355.572 736.572H266.336V737.153H355.572V736.572Z" fill="#EBEBEB"/>
<path d="M218.522 726.763H154.135V727.344H218.522V726.763Z" fill="#EBEBEB"/>
<path d="M502.246 287.092L503.292 256.549L484.557 250.412C483.751 240.061 482.072 229.797 479.536 219.729L495.435 208.107L484.65 179.423L464.985 181.004C460.322 171.762 454.879 162.936 448.713 154.621L458.895 137.629L437.974 115.291L420.402 124.287C412.499 117.532 404.057 111.437 395.158 106.063L397.994 86.5377L370.1 73.8927L357.316 88.8621C347.453 85.7072 337.346 83.3748 327.098 81.8888L322.449 62.7585L291.813 61.7125L285.769 80.4709C275.428 81.2838 265.173 82.9555 255.109 85.4684L243.301 69.6621L214.617 80.3779L216.198 100.043C206.961 104.776 198.136 110.273 189.815 116.477L172.707 106.063L150.276 126.983L159.272 144.649C152.516 152.512 146.45 160.942 141.141 169.846L121.639 166.917L108.901 194.811L123.963 207.572C120.786 217.429 118.453 227.538 116.99 237.79L97.6273 242.648L96.5813 273.192L115.409 279.328C116.188 289.673 117.86 299.931 120.407 309.988L104.508 321.61L115.316 350.317L134.981 348.737C139.632 357.985 145.076 366.812 151.253 375.119L141.048 392.111L161.968 414.449L179.541 405.453C187.423 412.206 195.85 418.294 204.738 423.654L201.81 443.156L229.703 455.824L242.557 440.855C252.42 444.038 262.526 446.409 272.775 447.944L277.424 467.075L308.06 468.121L314.104 449.362C324.451 448.54 334.713 446.868 344.787 444.365L356.409 460.171L385.093 449.455L383.605 429.79C392.825 425.027 401.648 419.531 409.988 413.356L426.887 423.538L449.318 402.617L440.322 384.952C447.081 377.091 453.147 368.66 458.453 359.754L477.955 362.683L490.693 334.79L475.631 322.005C478.861 312.156 481.234 302.046 482.72 291.787L502.246 287.092ZM295.857 386.044C271.887 385.234 248.696 377.334 229.217 363.342C209.738 349.349 194.846 329.895 186.425 307.438C178.005 284.981 176.434 260.531 181.911 237.181C187.388 213.831 199.667 192.631 217.195 176.26C234.723 159.89 256.713 149.086 280.382 145.215C304.051 141.344 328.336 144.58 350.166 154.514C371.996 164.447 390.39 180.631 403.02 201.02C415.65 221.408 421.95 245.085 421.122 269.054C420.019 301.177 406.203 331.547 382.713 353.486C359.222 375.424 327.98 387.135 295.857 386.044Z" fill="#EBEBEB"/>
<path d="M1025.09 186.071L1032.78 178.888L1029.73 172.822C1032.06 170.103 1034.15 167.195 1035.99 164.128L1042.73 165.128L1047.08 155.504L1041.91 151.111C1043.03 147.709 1043.84 144.217 1044.36 140.674L1050.98 139.024L1051.31 128.471L1044.84 126.379C1044.56 122.805 1043.98 119.26 1043.12 115.779L1048.59 111.712L1044.87 101.833L1038.1 102.367C1036.47 99.1811 1034.58 96.1336 1032.45 93.2554L1035.96 87.4442L1028.74 79.727L1022.69 82.8186C1019.97 80.501 1017.06 78.4098 1014 76.5658L1014.97 69.8248L1005.37 65.4316L1000.96 70.6151C997.549 69.5536 994.058 68.7762 990.521 68.2907L988.871 61.6892L978.318 61.2941L976.202 67.8026C972.642 68.0747 969.112 68.6501 965.649 69.5227L961.605 64.0602L951.703 67.7561L952.26 74.5435C949.065 76.1587 946.016 78.0487 943.149 80.1919L937.291 76.682L929.574 83.8646L932.572 89.7919C930.232 92.5026 928.133 95.4113 926.296 98.4854L919.578 97.4859L915.209 107.109L920.392 111.526C919.318 114.923 918.54 118.407 918.068 121.939L911.42 123.59L911.094 134.143L917.579 136.235C917.844 139.809 918.412 143.355 919.276 146.834L913.791 150.879L917.51 160.758L924.297 160.246C925.929 163.432 927.818 166.48 929.946 169.358L926.436 175.169L933.665 182.886L939.708 179.795C942.425 182.12 945.333 184.212 948.402 186.048L947.402 192.765L957.026 197.159L961.442 191.998C964.854 193.049 968.344 193.826 971.879 194.323L973.529 200.924L984.082 201.319L986.197 194.811C989.758 194.54 993.289 193.965 996.751 193.091L1000.8 198.553L1010.7 194.857L1010.16 188.07C1013.35 186.452 1016.39 184.563 1019.25 182.422L1025.09 186.071ZM970.182 141.604C968.152 139.429 966.813 136.701 966.334 133.765C965.855 130.828 966.258 127.816 967.491 125.108C968.724 122.401 970.733 120.12 973.263 118.555C975.793 116.989 978.73 116.209 981.703 116.313C984.677 116.417 987.552 117.401 989.966 119.139C992.38 120.878 994.225 123.294 995.266 126.081C996.307 128.868 996.498 131.901 995.814 134.797C995.131 137.692 993.604 140.32 991.427 142.348C989.983 143.71 988.282 144.772 986.424 145.473C984.566 146.174 982.588 146.499 980.603 146.43C978.619 146.36 976.667 145.898 974.863 145.07C973.058 144.242 971.435 143.064 970.089 141.604H970.182Z" fill="#EBEBEB"/>
<path d="M743.827 499.687L719.792 483.067C717.436 474.413 714.195 466.024 710.122 458.033L716.282 433.858L681.415 396.527L656.869 401.014C649.168 396.4 641.012 392.591 632.532 389.647L617.609 364.52L566.47 362.776L549.874 386.811C541.23 389.166 532.849 392.398 524.863 396.458L500.688 390.298L463.358 425.165L467.844 449.665C463.234 457.381 459.433 465.552 456.5 474.048L431.373 488.971L429.63 540.109L453.688 556.706C456.004 565.407 459.238 573.838 463.334 581.856L457.105 605.822L491.972 643.152L516.355 638.689C524.114 643.308 532.323 647.125 540.855 650.079L555.755 675.16L606.893 676.927L623.466 652.892C632.188 650.536 640.646 647.296 648.71 643.222L672.745 649.359L710.099 614.492L705.613 589.992C710.236 582.275 714.038 574.095 716.956 565.585L742.083 550.662L743.827 499.687ZM584.717 577.3C573.365 576.912 562.382 573.167 553.158 566.538C543.934 559.908 536.883 550.693 532.896 540.056C528.909 529.419 528.166 517.84 530.76 506.78C533.354 495.721 539.169 485.68 547.469 477.925C555.77 470.171 566.183 465.052 577.393 463.215C588.603 461.378 600.105 462.907 610.446 467.607C620.787 472.307 629.503 479.968 635.49 489.621C641.478 499.275 644.468 510.486 644.084 521.839C643.551 537.065 636.997 551.457 625.862 561.855C614.727 572.254 599.921 577.809 584.694 577.3H584.717Z" fill="#EBEBEB"/>
<path d="M798.567 354.78H798.405L758.145 353.409C757.33 353.394 756.531 353.173 755.824 352.767C755.117 352.36 754.524 351.781 754.101 351.084L743.245 332.837C737.395 330.697 731.734 328.069 726.323 324.981L708.96 327.979C708.151 328.127 707.317 328.068 706.537 327.808C705.757 327.548 705.055 327.095 704.497 326.491L676.998 297.064C676.421 296.454 676.011 295.706 675.807 294.892C675.604 294.077 675.614 293.224 675.836 292.415L680.229 275.191C677.507 269.609 675.283 263.799 673.581 257.827L656.078 245.74C655.399 245.274 654.85 244.644 654.48 243.908C654.11 243.172 653.932 242.355 653.963 241.533L655.334 201.273C655.362 200.46 655.588 199.666 655.993 198.961C656.398 198.256 656.97 197.661 657.659 197.228L675.952 186.373C678.062 180.536 680.683 174.897 683.786 169.521L680.578 152.018C680.428 151.205 680.486 150.368 680.746 149.584C681.006 148.799 681.46 148.093 682.066 147.531L711.493 120.056C712.102 119.477 712.849 119.064 713.663 118.856C714.477 118.649 715.331 118.654 716.142 118.871L733.436 123.287C739.003 120.564 744.798 118.332 750.753 116.616L762.84 99.113C763.29 98.4178 763.917 97.8551 764.656 97.4832C765.396 97.1114 766.222 96.9438 767.048 96.9977L807.284 98.3924C808.102 98.4098 808.903 98.6315 809.614 99.0375C810.324 99.4435 810.922 100.021 811.352 100.717L822.207 118.987C828.016 121.12 833.631 123.748 838.99 126.844L856.563 123.613C857.372 123.463 858.206 123.52 858.986 123.78C859.767 124.041 860.469 124.495 861.026 125.1L888.524 154.528C889.097 155.14 889.505 155.888 889.708 156.702C889.912 157.515 889.904 158.367 889.686 159.177L885.27 176.448C887.993 182.018 890.232 187.812 891.964 193.765L909.444 205.852C910.123 206.318 910.673 206.948 911.043 207.684C911.412 208.419 911.59 209.237 911.559 210.059L910.188 250.296C910.16 251.112 909.934 251.909 909.529 252.617C909.124 253.326 908.552 253.926 907.863 254.364L889.57 265.219C887.446 271.043 884.825 276.673 881.736 282.048L884.944 299.574C885.095 300.383 885.037 301.217 884.777 301.998C884.516 302.778 884.062 303.48 883.457 304.037L853.843 331.536C853.233 332.113 852.485 332.523 851.671 332.726C850.857 332.93 850.004 332.92 849.194 332.698L831.993 328.305C826.388 331.015 820.564 333.247 814.583 334.976L802.612 352.456C802.181 353.146 801.586 353.719 800.881 354.124C800.175 354.53 799.381 354.755 798.567 354.78ZM761.167 343.692L796.034 344.878L807.656 328.165C808.3 327.19 809.287 326.493 810.422 326.213C816.963 324.424 823.309 321.986 829.366 318.937C830.422 318.428 831.623 318.305 832.76 318.588L849.031 322.749L874.6 298.923L871.672 282.118C871.446 280.943 871.661 279.726 872.276 278.701C875.728 272.945 878.572 266.845 880.76 260.5C881.13 259.35 881.907 258.374 882.945 257.757L900.448 247.39L901.634 212.523L884.898 200.901C884.016 200.299 883.355 199.426 883.015 198.414C883.015 198.298 883.015 198.158 883.015 198.019C881.224 191.594 878.795 185.364 875.763 179.423C875.225 178.36 875.093 177.137 875.391 175.983L879.575 159.526L855.749 133.957L839.036 137.025C837.869 137.236 836.665 137.022 835.643 136.421C829.876 132.961 823.769 130.103 817.419 127.89C817.054 127.773 816.704 127.617 816.373 127.425C815.703 127.007 815.145 126.433 814.746 125.751L804.262 108.202L769.395 106.993L757.773 123.752C757.08 124.735 756.057 125.436 754.891 125.728C748.417 127.497 742.14 129.919 736.156 132.957C735.101 133.495 733.885 133.628 732.739 133.329L716.282 129.145L690.713 152.971L693.781 169.637C693.963 170.688 693.808 171.77 693.339 172.729L693.107 173.124C689.65 178.902 686.806 185.025 684.623 191.394C684.238 192.486 683.481 193.408 682.484 193.997L664.981 204.388L663.795 239.255L680.555 250.877C681.51 251.531 682.202 252.503 682.507 253.62C684.25 260.147 686.673 266.473 689.736 272.494C689.902 272.837 690.035 273.195 690.131 273.564C690.307 274.328 690.307 275.123 690.131 275.888L685.947 292.159L709.773 317.728L726.37 314.683C727.529 314.471 728.727 314.686 729.74 315.288C735.551 318.74 741.696 321.598 748.08 323.818C749.232 324.16 750.207 324.935 750.8 325.98L761.167 343.692ZM782.715 299.597C781.855 299.597 780.995 299.597 780.134 299.597C760.811 299.257 742.405 291.299 728.921 277.454C715.437 263.609 707.967 244.999 708.137 225.674C708.307 206.348 716.104 187.872 729.829 174.267C743.555 160.662 762.099 153.029 781.425 153.029C800.751 153.029 819.294 160.662 833.02 174.267C846.745 187.872 854.542 206.348 854.712 225.674C854.882 244.999 847.412 263.609 833.928 277.454C820.444 291.299 802.038 299.257 782.715 299.597ZM782.715 162.245C765.829 162.536 749.741 169.486 737.955 181.582C726.168 193.677 719.637 209.939 719.782 226.827C719.928 243.715 726.739 259.861 738.732 271.752C750.725 283.642 766.93 290.313 783.819 290.313C800.707 290.313 816.912 283.642 828.905 271.752C840.899 259.861 847.71 243.715 847.855 226.827C848.001 209.939 841.469 193.677 829.683 181.582C817.896 169.486 801.809 162.536 784.923 162.245H782.715Z" fill="#EBEBEB"/>
<path d="M891.29 64.9667L874.6 60.5038L870.137 43.8142L876.669 37.3057L883.55 51.5546L897.822 58.4582L891.29 64.9667Z" fill="#E0E0E0"/>
<path d="M892.313 53.8093C893.035 53.0874 893.607 52.2304 893.998 51.2871C894.389 50.3439 894.59 49.3329 894.59 48.312C894.59 47.291 894.389 46.2801 893.998 45.3368C893.607 44.3936 893.035 43.5366 892.313 42.8146C891.591 42.0927 890.734 41.5201 889.791 41.1294C888.847 40.7387 887.836 40.5376 886.816 40.5376C885.795 40.5376 884.784 40.7387 883.84 41.1294C882.897 41.5201 882.04 42.0927 881.318 42.8146L889.616 30.3555L900.727 35.9807L903.168 47.603L892.313 53.8093Z" fill="#E0E0E0"/>
<path d="M875.344 38.6539L887.571 26.4272L904.214 30.8669L908.7 47.5333L896.473 59.7599L879.807 55.2737L875.344 38.6539ZM897.543 48.649C898.631 47.5597 899.372 46.1722 899.671 44.6619C899.971 43.1516 899.817 41.5863 899.227 40.1639C898.637 38.7414 897.639 37.5258 896.359 36.6705C895.079 35.8152 893.573 35.3587 892.034 35.3587C890.494 35.3587 888.989 35.8152 887.708 36.6705C886.428 37.5258 885.43 38.7414 884.84 40.1639C884.251 41.5863 884.096 43.1516 884.396 44.6619C884.696 46.1722 885.436 47.5597 886.525 48.649C887.997 50.0936 889.98 50.8989 892.043 50.8902C894.106 50.8815 896.082 50.0595 897.543 48.6025V48.649Z" fill="#F0F0F0"/>
<path d="M209.713 509.845L218.662 507.427L221.056 498.478L217.569 494.991L213.873 502.639L206.203 506.335L209.713 509.845Z" fill="#E0E0E0"/>
<path d="M209.201 503.848C208.502 503.049 208.132 502.014 208.167 500.953C208.202 499.892 208.64 498.884 209.39 498.133C210.141 497.382 211.149 496.945 212.21 496.91C213.272 496.875 214.306 497.244 215.105 497.943L210.665 491.272L204.552 494.248L203.25 500.524L209.201 503.848Z" fill="#E0E0E0"/>
<path d="M218.266 495.689L211.711 489.134L202.762 491.458L200.438 500.407L206.876 507.032L215.826 504.708L218.266 495.689ZM206.365 501.058C205.934 500.681 205.585 500.219 205.34 499.701C205.095 499.184 204.959 498.621 204.94 498.049C204.921 497.476 205.019 496.906 205.23 496.373C205.44 495.841 205.758 495.357 206.163 494.952C206.568 494.547 207.052 494.229 207.584 494.019C208.117 493.808 208.687 493.71 209.26 493.729C209.832 493.748 210.395 493.884 210.912 494.129C211.43 494.374 211.892 494.723 212.269 495.154C212.969 495.953 213.338 496.988 213.303 498.049C213.268 499.11 212.831 500.118 212.08 500.869C211.329 501.62 210.321 502.057 209.26 502.092C208.199 502.127 207.164 501.758 206.365 501.058Z" fill="#F0F0F0"/>
<path d="M177.496 19.2679L184.934 26.7061C185.864 27.6204 187.116 28.1326 188.421 28.1326C189.725 28.1326 190.977 27.6204 191.907 26.7061C192.816 25.773 193.324 24.522 193.324 23.2194C193.324 21.9169 192.816 20.6659 191.907 19.7328L184.492 12.3177C183.559 11.409 182.308 10.9005 181.006 10.9005C179.703 10.9005 178.452 11.409 177.519 12.3177C176.608 13.2439 176.096 14.4894 176.092 15.7881C176.088 17.0867 176.591 18.3356 177.496 19.2679Z" fill="#F0F0F0"/>
<path d="M172.265 0.78843C174.206 0.248698 176.263 0.287513 178.182 0.90012C180.101 1.51273 181.8 2.67247 183.069 4.23692C184.338 5.80137 185.123 7.70243 185.327 9.7067C185.531 11.711 185.146 13.7312 184.218 15.5193C183.289 17.3074 181.859 18.7856 180.103 19.7723C178.347 20.7591 176.34 21.2114 174.33 21.0738C172.32 20.9363 170.394 20.2147 168.789 18.9978C167.183 17.781 165.968 16.1217 165.292 14.2238C164.863 12.8839 164.703 11.4724 164.822 10.0705C164.941 8.66858 165.335 7.304 165.983 6.05528C166.632 4.80655 167.52 3.69834 168.598 2.79443C169.677 1.89053 170.923 1.20878 172.265 0.78843Z" fill="#E0E0E0"/>
<path d="M164.176 12.9793L165.253 15.9763L187.347 8.03921L186.271 5.04221L164.176 12.9793Z" fill="#F0F0F0"/>
<path d="M581.114 814C830.023 814 1031.8 802.219 1031.8 787.687C1031.8 773.155 830.023 761.374 581.114 761.374C332.206 761.374 130.425 773.155 130.425 787.687C130.425 802.219 332.206 814 581.114 814Z" fill="#F5F5F5"/>
<path d="M201.577 100.601C199.252 90.3498 200.275 81.7493 204.692 74.7295C209.108 67.7096 216.314 63.1072 226.565 60.7827C236.816 58.4582 245.672 59.388 252.599 63.7115C259.526 68.035 264.221 75.3338 266.545 85.329C268.187 91.4981 268.322 97.9712 266.941 104.204C265.589 109.38 262.734 114.039 258.735 117.592C253.986 121.591 248.286 124.297 242.185 125.449C236.205 127.037 229.943 127.251 223.868 126.077C218.588 124.793 213.812 121.96 210.154 117.941C205.784 113.04 202.821 107.048 201.577 100.601ZM220.963 96.2772C222.404 102.6 224.612 106.877 227.588 109.108C229.123 110.132 230.851 110.835 232.665 111.175C234.479 111.514 236.344 111.483 238.146 111.084C239.948 110.684 241.651 109.924 243.152 108.85C244.653 107.775 245.921 106.408 246.881 104.831C248.554 101.6 248.577 96.4631 246.997 89.4665C245.649 83.5624 243.471 79.5178 240.465 77.3329C238.951 76.2465 237.214 75.5134 235.379 75.1875C233.545 74.8617 231.661 74.9514 229.866 75.45C228.069 75.7865 226.372 76.5261 224.902 77.6132C223.433 78.7003 222.229 80.1065 221.381 81.7261C219.661 85.143 219.498 89.792 220.963 96.2772Z" fill="#263238"/>
<path d="M275.658 92.93C274.832 89.7622 274.685 86.4558 275.225 83.2272C275.766 79.9986 276.983 76.9206 278.796 74.1948C280.828 71.2989 283.412 68.8329 286.4 66.9381C289.387 65.0434 292.72 63.7573 296.206 63.1537C305.302 61.0926 312.771 62.1696 318.614 66.3847C323.53 70.196 326.873 75.6829 328.004 81.8C329.136 87.917 327.978 94.2366 324.75 99.5547C321.124 105.087 315.22 108.775 307.038 110.619C300.734 112.381 294.009 111.837 288.07 109.085C284.895 107.533 282.121 105.267 279.968 102.464C277.815 99.6614 276.339 96.3981 275.658 92.93ZM293.114 88.9087C293.585 92.1568 295.171 95.1401 297.6 97.3464C298.564 98.0754 299.674 98.586 300.854 98.8427C302.035 99.0993 303.257 99.0959 304.436 98.8327C305.615 98.5695 306.722 98.0528 307.681 97.3184C308.64 96.5841 309.428 95.6498 309.99 94.5803C311.207 91.4581 311.322 88.014 310.315 84.8176C309.826 81.6456 308.258 78.7393 305.875 76.589C304.951 75.8394 303.866 75.3132 302.705 75.0511C301.544 74.7891 300.338 74.7983 299.181 75.0781C297.975 75.3281 296.842 75.8494 295.867 76.6025C294.892 77.3557 294.102 78.3208 293.556 79.4249C292.304 82.4372 292.148 85.793 293.114 88.9087Z" fill="#263238"/>
<path d="M345.368 119.01L331.119 56.25L347.39 52.5309L348.924 59.2486C350.072 56.5695 351.739 54.1442 353.829 52.1125C356.122 50.1659 358.861 48.8164 361.802 48.1842C364.519 47.445 367.379 47.4025 370.117 48.0606C372.856 48.7188 375.384 50.0563 377.469 51.9498C382.063 56.2444 385.179 61.8834 386.371 68.0583C388.091 75.6128 387.58 81.7958 384.884 86.6539C383.601 88.9767 381.829 90.9927 379.689 92.5621C377.55 94.1315 375.095 95.2167 372.494 95.7426C369.989 96.3366 367.392 96.4393 364.847 96.0447C362.406 95.6172 360.08 94.6914 358.013 93.3251L362.941 115.012L345.368 119.01ZM353.759 75.1711C354.186 78.0742 355.637 80.729 357.85 82.6559C358.738 83.3354 359.767 83.8054 360.862 84.0308C361.957 84.2562 363.089 84.2312 364.173 83.9576C365.179 83.7558 366.124 83.3204 366.932 82.6865C367.739 82.0527 368.387 81.238 368.822 80.3082C369.81 77.399 369.81 74.2449 368.822 71.3358C368.397 68.4181 366.996 65.7305 364.847 63.7115C364.05 63.0495 363.111 62.5794 362.104 62.3376C361.096 62.0958 360.046 62.0887 359.036 62.3169C357.968 62.5474 356.966 63.0163 356.104 63.6885C355.243 64.3606 354.544 65.2187 354.061 66.1987C352.923 69.064 352.817 72.2357 353.759 75.1711Z" fill="#263238"/>
<path d="M393.833 76.5425L410.755 70.9871C411.655 72.623 413.056 73.9267 414.753 74.7062C416.579 75.235 418.511 75.2772 420.358 74.8287C422.205 74.3801 423.903 73.4565 425.283 72.1493C425.668 71.7392 425.948 71.2411 426.098 70.6984C426.248 70.1556 426.263 69.5845 426.143 69.0345C426.003 68.4052 425.678 67.8321 425.21 67.3889C424.742 66.9457 424.152 66.6526 423.516 66.5474C420.89 66.2591 418.239 66.2591 415.613 66.5474C411.204 66.9223 406.772 66.9223 402.364 66.5474C399.783 66.1728 397.363 65.0678 395.39 63.3629C393.285 61.541 391.831 59.0831 391.248 56.3611C390.665 53.6391 390.985 50.8012 392.159 48.2771C393.515 45.5762 395.621 43.3243 398.226 41.7919C401.934 39.6855 405.962 38.2014 410.15 37.3987C414.148 36.3136 418.282 35.8125 422.424 35.911C425.024 36.0785 427.545 36.8762 429.769 38.2355C432.138 39.8338 434.149 41.9078 435.673 44.3256L419.402 49.695C418.794 48.484 417.783 47.5224 416.543 46.9754C414.847 46.3689 413.008 46.2879 411.266 46.743C409.727 46.9576 408.299 47.6674 407.198 48.7653C406.849 49.1395 406.596 49.5936 406.463 50.0879C406.329 50.5822 406.318 51.1017 406.431 51.6011C406.557 52.1507 406.847 52.6493 407.262 53.0311C407.677 53.4128 408.198 53.6599 408.756 53.7396C411.354 54.0412 413.982 53.9865 416.566 53.5769C421.048 52.9273 425.596 52.8648 430.094 53.3909C432.924 53.7906 435.575 55.0109 437.719 56.9009C439.657 58.6585 441.005 60.9724 441.577 63.5256C442.173 66.2634 441.954 69.1155 440.95 71.7309C439.72 74.8273 437.581 77.4777 434.813 79.3319C430.736 81.9971 426.168 83.8225 421.378 84.7014C413.087 86.5919 406.888 86.7546 402.782 85.1895C398.781 83.5917 395.567 80.4865 393.833 76.5425Z" fill="#263238"/>
<path d="M450.596 19.0587H469.68V33.7028L466.17 63.1537H454.362L450.596 33.7493V19.0587ZM451.526 67.5934H469.331V83.3532H451.526V67.5934Z" fill="#263238"/>
<path d="M299.111 218.985H298.693C288.233 214.918 281.98 210.966 278.726 206.201C276.178 206.684 273.543 206.325 271.218 205.178C268.494 203.845 266.234 201.723 264.733 199.088C263.943 199.694 263.014 200.09 262.03 200.24C261.047 200.391 260.042 200.29 259.107 199.948C256.243 198.876 253.798 196.912 252.134 194.346C251.093 195.121 249.799 195.478 248.508 195.346C241.534 194.788 232.237 181.027 231.563 166.383C231.556 166.074 231.668 165.774 231.875 165.545C232.083 165.315 232.37 165.175 232.678 165.151C232.831 165.145 232.983 165.169 233.127 165.221C233.27 165.274 233.402 165.354 233.514 165.458C233.626 165.562 233.717 165.686 233.781 165.825C233.845 165.964 233.881 166.114 233.887 166.267C234.538 180.213 243.441 192.603 248.717 193.021C249.101 193.064 249.49 193.031 249.861 192.923C250.232 192.816 250.578 192.636 250.879 192.394C249.061 189.079 247.919 185.437 247.52 181.678C247.121 177.92 247.473 174.119 248.554 170.497C250.553 163.524 252.32 160.781 254.458 161.199C258.457 162.199 257.922 177.47 255.807 187.442C255.486 189.241 254.823 190.961 253.854 192.51C255.224 194.808 257.293 196.607 259.758 197.647C260.415 197.897 261.13 197.953 261.818 197.809C262.507 197.665 263.139 197.326 263.64 196.833C261.827 192.347 261.316 186.21 263.919 178.4C267.173 168.103 268.568 167.824 269.288 167.638C269.56 167.581 269.841 167.599 270.103 167.689C270.365 167.779 270.597 167.938 270.776 168.149C272.938 170.59 270.358 186.582 267.661 194.486C267.346 195.437 266.908 196.343 266.36 197.182C267.607 199.696 269.639 201.736 272.148 202.993C273.793 203.793 275.623 204.138 277.447 203.993C277.238 203.551 277.052 203.109 276.866 202.644C275.03 197.647 275.936 191.905 279.632 185.025C282.073 180.492 284.072 178.354 285.932 178.354C286.425 178.36 286.907 178.508 287.319 178.78C287.731 179.052 288.056 179.437 288.256 179.888C290.278 183.63 288.814 195.973 284.816 202.11C283.88 203.517 282.578 204.642 281.05 205.364C284.165 209.455 290.092 213.058 299.646 216.731C299.789 216.782 299.921 216.862 300.032 216.965C300.144 217.069 300.234 217.193 300.297 217.332C300.36 217.471 300.394 217.621 300.398 217.773C300.402 217.925 300.376 218.076 300.32 218.218C300.23 218.46 300.063 218.666 299.845 218.805C299.626 218.943 299.369 219.007 299.111 218.985ZM285.908 180.701C285.908 180.701 284.583 180.702 281.655 186.164C278.284 192.394 277.424 197.531 279.028 201.854C279.222 202.389 279.455 202.91 279.725 203.411C280.984 202.891 282.055 201.999 282.794 200.855C286.048 195.88 287.605 185.653 286.397 181.655C286.234 180.841 285.908 180.701 285.908 180.701ZM269.219 170.916C267.961 173.562 266.919 176.306 266.104 179.121C264.321 183.999 264.014 189.294 265.221 194.346L265.43 193.742C267.871 186.374 269.172 178.676 269.288 170.916H269.219ZM253.924 163.593C253.529 163.942 252.39 165.407 250.786 171.078C248.889 177.443 249.487 184.292 252.459 190.232C252.936 189.193 253.288 188.1 253.505 186.978C255.993 175.564 255.295 165.244 253.994 163.593H253.924Z" fill="#263238"/>
<path d="M387.487 340.833C383.771 340.869 380.112 339.914 376.887 338.067C376.622 337.908 376.43 337.65 376.351 337.351C376.273 337.051 376.315 336.732 376.469 336.463C376.546 336.332 376.648 336.218 376.769 336.127C376.891 336.036 377.029 335.97 377.176 335.933C377.323 335.896 377.477 335.889 377.627 335.912C377.777 335.936 377.92 335.989 378.05 336.068C386.348 340.926 397.064 337.533 399.272 333.976C399.432 333.753 399.545 333.5 399.605 333.233C399.664 332.965 399.67 332.689 399.621 332.419C395.377 332.663 391.175 331.467 387.696 329.025C381.769 325.329 381.304 324.214 381.35 323.33C381.362 323.076 381.441 322.83 381.58 322.618C381.719 322.405 381.913 322.234 382.141 322.121C384.465 320.959 394.949 325.771 399.318 328.653C399.842 329.001 400.326 329.407 400.76 329.862C402.477 329.472 404.024 328.544 405.176 327.212C405.824 326.45 406.293 325.553 406.548 324.585H406.083C402.364 324.957 398.644 323.353 394.67 319.681C391.927 317.17 390.881 315.427 391.229 314.056C391.335 313.67 391.549 313.323 391.845 313.055C392.142 312.788 392.509 312.61 392.903 312.545C396.111 311.731 404.06 315.125 407.291 318.681C408.012 319.455 408.524 320.398 408.779 321.424C411.824 320.006 415.032 316.775 418.821 311.499C418.909 311.373 419.021 311.266 419.151 311.184C419.28 311.102 419.425 311.046 419.576 311.02C419.727 310.994 419.882 310.999 420.032 311.033C420.182 311.067 420.323 311.131 420.448 311.22C420.697 311.402 420.865 311.673 420.917 311.977C420.969 312.281 420.901 312.593 420.727 312.847C416.334 318.983 412.661 322.47 408.988 323.888C408.798 325.606 408.093 327.227 406.966 328.537C405.627 330.093 403.867 331.231 401.899 331.814C402.009 332.369 402.009 332.941 401.897 333.495C401.785 334.05 401.565 334.577 401.248 335.045C399.295 338.369 393.67 340.833 387.487 340.833ZM385.418 324.702C386.209 325.283 387.324 326.05 388.928 327.026C391.428 328.712 394.299 329.765 397.296 330.094C393.555 327.851 389.57 326.042 385.418 324.702ZM393.531 314.823C394.198 316.08 395.125 317.181 396.25 318.054C399.69 321.238 402.828 322.703 405.85 322.331H406.594C406.429 321.609 406.076 320.943 405.571 320.401C402.317 316.729 395.158 314.451 393.531 314.823Z" fill="#263238"/>
<path d="M418.263 337.649L382.048 344.227L349.157 164.732L279.284 177.424L165.385 379.652L177.612 446.387L323.704 419.865L333.699 474.443L403.572 461.705L393.577 407.127L429.792 400.549L418.263 337.649ZM234.98 371.051L295.415 265.126L312.268 357.035L234.98 371.051Z" fill="#FA8802"/>
<path d="M709.959 152.552C708.859 141.269 706.361 130.166 702.521 119.498C698.571 109.281 693.084 99.7254 686.25 91.1633C678.16 81.2022 668.112 73.0062 656.729 67.082C644.332 60.2791 627.89 55.5449 607.404 52.8795C564.867 47.3318 531.72 54.8786 507.964 75.5198C484.208 96.1609 468.557 135.677 461.01 194.067C457.997 215.889 457.218 237.962 458.685 259.942C460.235 280.088 463.939 296.305 469.796 308.593C477.25 325.165 489.009 339.436 503.85 349.922C518.525 360.227 538.67 367.038 564.285 370.354C609.814 376.289 643.573 367.541 665.562 344.111C687.551 320.68 702.118 281.087 709.262 225.331C712.438 201.189 712.672 176.751 709.959 152.552Z" fill="#FA8802"/>
<path d="M585.229 346.482C579.627 346.296 573.607 345.784 567.54 344.994C546.248 342.228 529.791 336.835 518.587 328.979C507.413 321.089 498.579 310.327 493.018 297.831L492.901 297.575C488.439 288.277 485.51 274.912 484.231 258.059C482.877 237.817 483.594 217.488 486.37 197.391C494.668 132.957 511.799 106.063 524.7 94.8592C539.763 81.7958 560.102 75.8917 586.833 76.8215C592.319 77.0074 598.13 77.4955 604.104 78.2626C621.258 80.5871 634.856 84.3062 644.479 89.5595C652.795 93.8418 660.156 99.7643 666.12 106.97C671.338 113.477 675.532 120.744 678.556 128.517C681.644 137.185 683.643 146.204 684.507 155.365C686.986 177.563 686.759 199.98 683.832 222.123C677.394 272.192 664.935 307.384 646.827 326.724C633.392 341.043 613.239 347.644 585.206 346.575L585.229 346.482Z" fill="#263238"/>
<path d="M630.718 153.226L631.021 144.417L625.605 142.65C625.374 139.67 624.892 136.716 624.163 133.817L628.812 130.423L625.697 122.148L620.026 122.613C618.692 119.954 617.137 117.411 615.377 115.012L618.306 110.108L612.262 103.669L607.195 106.272C604.927 104.323 602.502 102.566 599.943 101.019L600.756 95.3939L592.713 91.7445L589.041 96.068C586.197 95.1463 583.281 94.4621 580.324 94.0224L578.953 88.5135L570.12 88.2113L568.376 93.604C565.398 93.8424 562.443 94.3244 559.543 95.0452L556.126 90.3963L547.851 93.4878L548.316 99.1595C545.657 100.494 543.115 102.049 540.715 103.808L535.834 100.856L529.372 106.877L531.975 111.967C530.02 114.233 528.27 116.668 526.745 119.243L521.12 118.383L517.447 126.425L521.794 130.098C520.851 132.944 520.166 135.869 519.749 138.838L514.216 140.233L513.914 149.019L519.33 150.786C519.557 153.773 520.039 156.736 520.771 159.642L516.123 163.012L519.237 171.287L524.909 170.823C526.229 173.489 527.785 176.033 529.558 178.424L526.606 183.328L532.649 189.767L537.717 187.187C539.985 189.129 542.41 190.878 544.969 192.417L544.132 198.042L552.175 201.691L555.871 197.391C558.723 198.308 561.646 198.984 564.611 199.413L565.982 204.946L574.792 205.248L576.535 199.832C579.523 199.605 582.486 199.123 585.391 198.391L588.762 203.04L597.037 199.948L596.595 194.3C599.245 192.948 601.786 191.393 604.196 189.651L609.078 192.579L615.54 186.559L612.959 181.469C614.907 179.21 616.649 176.783 618.166 174.216L623.791 175.053L627.464 167.01L623.141 163.338C624.065 160.496 624.742 157.58 625.163 154.621L630.718 153.226ZM571.212 181.747C564.327 181.496 557.672 179.21 552.085 175.18C546.498 171.149 542.23 165.553 539.821 159.099C537.411 152.644 536.967 145.621 538.546 138.915C540.124 132.209 543.654 126.121 548.69 121.419C553.725 116.717 560.041 113.613 566.839 112.497C573.637 111.382 580.614 112.305 586.888 115.151C593.162 117.997 598.452 122.637 602.091 128.487C605.73 134.337 607.555 141.134 607.334 148.02C607.187 152.609 606.135 157.125 604.238 161.307C602.342 165.489 599.637 169.255 596.281 172.389C592.924 175.522 588.982 177.963 584.68 179.569C580.378 181.175 575.801 181.915 571.212 181.747Z" fill="#FA8802"/>
<path opacity="0.3" d="M667.398 314.962L668.049 309.012L664.469 307.57C664.464 305.545 664.293 303.524 663.958 301.527L667.189 299.458L665.539 293.717H661.68C660.917 291.849 659.991 290.053 658.914 288.347L661.099 285.186L657.38 280.537L653.823 282.025C652.382 280.599 650.828 279.293 649.175 278.12L650.035 274.354L644.805 271.472L642.062 274.238C640.194 273.469 638.266 272.855 636.297 272.401L635.646 268.612L629.719 267.938L628.254 271.518C626.235 271.528 624.221 271.714 622.234 272.076L620.165 268.775L614.424 270.472V274.331C612.556 275.102 610.759 276.035 609.054 277.12L605.893 274.796L601.244 278.515L602.732 282.071C601.315 283.514 600.017 285.068 598.85 286.72L595.084 285.883L592.225 291.113L594.968 293.833C594.189 295.705 593.574 297.642 593.132 299.621L589.32 300.248L588.692 306.176L592.249 307.663C592.25 309.674 592.429 311.681 592.783 313.66L589.506 315.729L591.179 321.471H595.061C595.837 323.329 596.77 325.117 597.851 326.817L595.526 329.978L599.245 334.627L602.848 333.116C604.279 334.547 605.834 335.846 607.497 336.998L606.683 340.833L611.913 343.692L614.633 340.973C616.503 341.724 618.431 342.322 620.398 342.763L621.072 346.575L626.999 347.226L628.44 343.669C630.496 343.666 632.549 343.495 634.577 343.158L636.646 346.435L642.364 344.762V340.903C644.233 340.118 646.036 339.185 647.757 338.114L650.871 340.438L655.52 336.696L654.009 333.139C655.442 331.698 656.755 330.143 657.938 328.491L661.68 329.327L664.562 324.097L661.82 321.401C662.567 319.529 663.165 317.602 663.609 315.636L667.398 314.962ZM637.483 312.638C636.499 314.437 635.004 315.905 633.186 316.855C631.368 317.804 629.309 318.193 627.27 317.973C625.231 317.752 623.303 316.932 621.731 315.615C620.158 314.299 619.011 312.545 618.435 310.577C617.86 308.608 617.88 306.513 618.496 304.557C619.111 302.6 620.292 300.87 621.891 299.585C623.489 298.3 625.433 297.519 627.476 297.339C629.519 297.159 631.57 297.589 633.368 298.575C635.773 299.9 637.555 302.123 638.326 304.758C639.097 307.393 638.794 310.226 637.483 312.638Z" fill="#FA8802"/>
<path d="M700.336 214.499L693.363 209.711C692.676 207.221 691.742 204.807 690.573 202.505L692.34 195.532L682.298 184.769L675.325 186.071C673.113 184.754 670.777 183.656 668.351 182.793L664.051 175.541L649.337 175.053L644.549 182.026C642.056 182.702 639.641 183.637 637.343 184.816L630.37 183.026L619.608 193.091L620.909 200.064C619.573 202.266 618.475 204.604 617.632 207.038L610.403 211.338L609.891 226.052L616.865 230.84C617.541 233.348 618.475 235.778 619.654 238.092L617.887 245.066L627.929 255.828L634.903 254.549C637.116 255.864 639.451 256.962 641.876 257.827L646.153 265.056L660.89 265.567L665.655 258.594C668.168 257.912 670.606 256.977 672.931 255.805L679.904 257.571L690.666 247.53L689.388 240.556C690.709 238.346 691.807 236.01 692.665 233.583L699.894 229.283L700.336 214.499ZM654.474 236.86C651.203 236.748 648.038 235.668 645.38 233.757C642.723 231.846 640.691 229.19 639.543 226.124C638.395 223.059 638.182 219.722 638.931 216.535C639.679 213.348 641.356 210.455 643.749 208.221C646.142 205.988 649.144 204.514 652.374 203.986C655.605 203.459 658.92 203.901 661.899 205.257C664.878 206.613 667.388 208.822 669.112 211.605C670.836 214.388 671.695 217.62 671.582 220.891C671.425 225.275 669.536 229.418 666.329 232.411C663.122 235.405 658.859 237.005 654.474 236.86Z" fill="white"/>
<path d="M750.8 97.0442L752.009 94.1387C752.83 93.6755 753.608 93.1387 754.333 92.5348H757.03L760.191 87.8859L759.168 85.3987C759.56 84.5703 759.871 83.7063 760.098 82.8186L762.422 80.6801L761.446 75.2176L758.517 74.0089C758.058 73.1846 757.521 72.4062 756.913 71.6844V68.988L752.381 65.8268L749.87 66.8728C748.953 66.5496 748.001 66.3312 747.034 66.2219L744.896 63.8975L739.457 64.8737L738.225 67.8026C737.362 68.2497 736.545 68.7791 735.784 69.3832H733.111L729.95 74.0321L730.972 76.5193C730.66 77.4401 730.442 78.3903 730.322 79.3551L727.997 81.5169L728.973 86.9561L731.902 88.1648C732.346 88.9932 732.875 89.7724 733.483 90.4893V93.1624L738.132 96.3237L740.619 95.3009C741.549 95.6031 742.507 95.8133 743.478 95.9285L745.616 98.253L750.8 97.0442ZM739.178 81.9818C738.958 80.7689 739.103 79.5181 739.594 78.3877C740.085 77.2573 740.901 76.298 741.938 75.6313C742.974 74.9646 744.186 74.6203 745.418 74.6422C746.65 74.6641 747.849 75.0511 748.861 75.7543C749.873 76.4574 750.654 77.445 751.105 78.5922C751.556 79.7394 751.656 80.9945 751.394 82.1988C751.131 83.403 750.517 84.5023 749.629 85.3574C748.741 86.2125 747.62 86.7851 746.407 87.0026C744.783 87.2875 743.113 86.9198 741.759 85.9795C740.405 85.0393 739.478 83.6025 739.178 81.9818Z" fill="#FA8802"/>
<path d="M687.133 81.6331L685.343 80.1222C689.179 75.3649 693.919 71.4147 699.29 68.4999L700.383 70.5454C695.275 73.3264 690.771 77.0954 687.133 81.6331Z" fill="#FA8802"/>
<path d="M705.682 68.4069L704.776 66.2684C713.359 62.5382 722.746 61.0351 732.065 61.8984L731.832 64.2229C722.902 63.3811 713.904 64.8208 705.682 68.4069Z" fill="#FA8802"/>
<path d="M701.289 84.4922L699.383 83.1905C704.983 75.6282 713.134 70.3513 722.325 68.3372L722.767 70.6616C714.177 72.5376 706.551 77.4481 701.289 84.4922Z" fill="#FA8802"/>
<path d="M547.038 308.291C546.721 308.282 546.42 308.148 546.201 307.919L541.343 302.898C538.866 302.674 536.415 302.222 534.021 301.55L526.42 304.897C526.252 304.989 526.065 305.037 525.874 305.037C525.683 305.037 525.495 304.989 525.327 304.897L512.589 296.459C512.425 296.351 512.292 296.202 512.202 296.027C512.112 295.852 512.07 295.657 512.078 295.46V287.185C510.523 285.24 509.154 283.155 507.987 280.955L501.455 278.445C501.272 278.374 501.11 278.258 500.984 278.108C500.858 277.957 500.772 277.777 500.735 277.585L497.713 262.615C497.673 262.424 497.682 262.226 497.739 262.039C497.795 261.852 497.899 261.683 498.038 261.546L503.059 256.688C503.299 254.213 503.75 251.764 504.407 249.366L501.06 241.765C500.969 241.597 500.921 241.41 500.921 241.219C500.921 241.028 500.969 240.84 501.06 240.672L509.498 227.934C509.603 227.767 509.751 227.631 509.927 227.541C510.103 227.451 510.3 227.41 510.497 227.423L518.772 227.539C520.711 225.977 522.798 224.607 525.002 223.448L527.536 216.917C527.603 216.735 527.714 216.574 527.861 216.448C528.007 216.322 528.183 216.235 528.372 216.196L543.342 213.174C543.533 213.132 543.732 213.14 543.919 213.197C544.107 213.254 544.276 213.358 544.411 213.5L549.269 218.52C551.753 218.747 554.212 219.198 556.615 219.869L564.192 216.521C564.364 216.43 564.556 216.382 564.75 216.382C564.945 216.382 565.136 216.43 565.308 216.521L578.023 224.959C578.184 225.072 578.317 225.221 578.409 225.395C578.502 225.569 578.553 225.762 578.557 225.959L578.418 234.234C579.98 236.178 581.357 238.263 582.532 240.463L589.041 242.997C589.222 243.064 589.383 243.176 589.509 243.322C589.635 243.469 589.722 243.645 589.761 243.834L592.806 258.803C592.842 258.995 592.831 259.192 592.775 259.378C592.718 259.564 592.617 259.734 592.481 259.873L587.437 264.754C587.205 267.222 586.753 269.664 586.089 272.053L589.436 279.654C589.528 279.825 589.575 280.017 589.575 280.212C589.575 280.406 589.528 280.598 589.436 280.769L581.114 293.391C581.005 293.549 580.859 293.678 580.689 293.767C580.519 293.856 580.33 293.903 580.138 293.903L571.84 293.786C569.894 295.328 567.817 296.697 565.633 297.877L563.1 304.409C563.031 304.593 562.915 304.756 562.765 304.883C562.614 305.009 562.433 305.094 562.24 305.13L547.27 308.291H547.038ZM533.951 298.993C534.059 298.972 534.169 298.972 534.277 298.993C536.787 299.724 539.365 300.199 541.971 300.411C542.25 300.444 542.511 300.566 542.714 300.76L547.363 305.641L561.078 302.875L563.542 296.506C563.656 296.249 563.852 296.036 564.099 295.902C566.421 294.701 568.611 293.26 570.631 291.601C570.845 291.421 571.119 291.33 571.398 291.346L579.464 291.462L587.181 279.84L583.927 272.448C583.835 272.192 583.835 271.913 583.927 271.658C584.646 269.144 585.121 266.568 585.345 263.964C585.369 263.682 585.492 263.418 585.694 263.22L590.575 258.571L587.809 244.857L581.463 242.393C581.19 242.293 580.966 242.094 580.835 241.835C579.629 239.516 578.188 237.327 576.535 235.303C576.369 235.091 576.279 234.829 576.28 234.559V226.47L564.657 218.753L557.289 222.007C557.026 222.101 556.738 222.101 556.475 222.007C553.956 221.28 551.371 220.805 548.758 220.589C548.479 220.556 548.218 220.434 548.014 220.24L543.365 215.359L529.651 218.148L527.21 224.61C527.113 224.877 526.923 225.1 526.676 225.238C524.345 226.436 522.147 227.877 520.121 229.538C520.02 229.629 519.903 229.698 519.775 229.742C519.647 229.786 519.512 229.804 519.377 229.794L511.311 229.678L503.57 241.3L506.825 248.692C506.899 248.848 506.938 249.019 506.938 249.192C506.938 249.365 506.899 249.535 506.825 249.691C506.136 252.145 505.685 254.659 505.477 257.199C505.455 257.482 505.331 257.746 505.128 257.943L500.247 262.592L503.036 276.306L509.358 278.77C509.641 278.888 509.871 279.102 510.009 279.375C511.208 281.678 512.641 283.851 514.286 285.86C514.459 286.069 514.55 286.333 514.542 286.604V294.693L526.164 302.41L533.556 299.156C533.677 299.079 533.811 299.023 533.951 298.993ZM545.364 291.462C539.769 291.457 534.28 289.936 529.481 287.061C524.681 284.185 520.75 280.063 518.106 275.133C515.462 270.202 514.203 264.647 514.464 259.058C514.724 253.469 516.494 248.055 519.586 243.392C522.543 238.918 526.61 235.289 531.39 232.858C536.171 230.427 541.5 229.279 546.857 229.525C552.214 229.771 557.415 231.403 561.952 234.261C566.49 237.12 570.207 241.107 572.742 245.833C575.276 250.559 576.54 255.862 576.411 261.223C576.282 266.584 574.764 271.82 572.005 276.419C569.245 281.017 565.34 284.821 560.671 287.458C556.001 290.094 550.727 291.474 545.364 291.462ZM521.539 244.671C518.41 249.391 516.751 254.934 516.772 260.597C516.793 266.26 518.492 271.79 521.656 276.488C524.819 281.185 529.305 284.839 534.545 286.988C539.785 289.136 545.544 289.683 551.095 288.559C556.645 287.434 561.738 284.689 565.729 280.671C569.719 276.652 572.429 271.541 573.515 265.982C574.601 260.424 574.014 254.669 571.829 249.444C569.645 244.219 565.96 239.759 561.24 236.628C558.111 234.533 554.597 233.079 550.902 232.349C547.207 231.62 543.405 231.629 539.714 232.377C536.022 233.124 532.516 234.596 529.396 236.706C526.277 238.816 523.606 241.523 521.539 244.671Z" fill="white"/>
<path d="M989.824 358.615L953.33 353.688L977.458 172.822L907.073 163.338L736.342 320.518L727.369 387.764L874.484 407.615L867.139 462.635L937.524 472.119L944.869 417.122L981.363 422.05L989.824 358.615ZM805.215 333.697L895.311 251.574L882.945 344.181L805.215 333.697Z" fill="#FA8802"/>
<path d="M916.139 470.399H915.836C915.535 470.342 915.268 470.169 915.094 469.916C914.919 469.664 914.852 469.352 914.907 469.05L969.299 171.659C969.361 171.361 969.536 171.097 969.787 170.924C970.038 170.751 970.346 170.681 970.647 170.73C970.949 170.786 971.216 170.959 971.39 171.212C971.564 171.465 971.631 171.776 971.577 172.078L917.301 469.446C917.247 469.714 917.102 469.956 916.89 470.13C916.678 470.304 916.413 470.399 916.139 470.399Z" fill="#263238"/>
<path d="M964.255 176.657C964.236 177.162 964.018 177.64 963.647 177.984C963.277 178.329 962.785 178.512 962.279 178.493C961.774 178.475 961.296 178.256 960.952 177.886C960.607 177.515 960.424 177.023 960.443 176.517C960.461 176.012 960.68 175.534 961.05 175.19C961.421 174.846 961.913 174.663 962.418 174.681C962.924 174.7 963.401 174.918 963.746 175.289C964.09 175.659 964.273 176.151 964.255 176.657Z" fill="#263238"/>
<path d="M956.514 216.87C956.5 217.247 956.375 217.611 956.154 217.916C955.933 218.221 955.627 218.454 955.274 218.586C954.92 218.717 954.536 218.741 954.169 218.654C953.803 218.567 953.47 218.373 953.214 218.097C952.957 217.821 952.788 217.475 952.728 217.103C952.668 216.731 952.72 216.349 952.876 216.006C953.033 215.664 953.288 215.375 953.609 215.177C953.929 214.979 954.301 214.881 954.678 214.894C954.928 214.903 955.175 214.961 955.402 215.066C955.63 215.17 955.835 215.318 956.006 215.501C956.176 215.685 956.309 215.9 956.396 216.135C956.484 216.37 956.524 216.62 956.514 216.87Z" fill="#263238"/>
<path d="M948.774 257.153C948.765 257.403 948.707 257.649 948.603 257.877C948.499 258.105 948.35 258.31 948.167 258.481C947.983 258.651 947.768 258.784 947.533 258.871C947.298 258.958 947.049 258.999 946.798 258.989C946.549 258.983 946.303 258.928 946.076 258.826C945.848 258.724 945.643 258.578 945.472 258.397C945.301 258.215 945.168 258.001 945.081 257.768C944.993 257.534 944.953 257.286 944.962 257.037C944.968 256.784 945.024 256.536 945.127 256.305C945.23 256.075 945.377 255.867 945.561 255.694C945.745 255.521 945.961 255.386 946.198 255.297C946.434 255.209 946.686 255.168 946.938 255.177C947.441 255.201 947.915 255.421 948.259 255.791C948.602 256.16 948.787 256.649 948.774 257.153Z" fill="#263238"/>
<path d="M933.526 298.993C933.474 299.459 933.252 299.89 932.902 300.203C932.553 300.516 932.1 300.689 931.631 300.689C931.162 300.689 930.709 300.516 930.36 300.203C930.01 299.89 929.788 299.459 929.737 298.993C929.707 298.727 929.734 298.457 929.816 298.202C929.898 297.947 930.032 297.711 930.211 297.512C930.39 297.312 930.609 297.152 930.853 297.043C931.098 296.933 931.363 296.877 931.631 296.877C931.899 296.877 932.164 296.933 932.409 297.043C932.654 297.152 932.872 297.312 933.051 297.512C933.23 297.711 933.365 297.947 933.446 298.202C933.528 298.457 933.555 298.727 933.526 298.993Z" fill="#263238"/>
<path d="M933.27 337.509C933.264 337.761 933.208 338.008 933.105 338.238C933.002 338.467 932.854 338.673 932.67 338.844C932.485 339.016 932.269 339.148 932.033 339.234C931.796 339.32 931.545 339.358 931.294 339.346C930.918 339.332 930.554 339.206 930.248 338.985C929.943 338.765 929.71 338.458 929.579 338.105C929.447 337.752 929.424 337.367 929.511 337.001C929.598 336.634 929.792 336.301 930.068 336.045C930.344 335.788 930.69 335.619 931.062 335.559C931.434 335.499 931.815 335.551 932.158 335.708C932.501 335.864 932.789 336.119 932.987 336.44C933.185 336.761 933.284 337.133 933.27 337.509Z" fill="#263238"/>
<path d="M925.53 377.723C925.52 378.1 925.399 378.467 925.18 378.775C924.962 379.084 924.657 379.321 924.304 379.455C923.951 379.59 923.566 379.617 923.198 379.533C922.829 379.448 922.495 379.256 922.236 378.981C921.977 378.705 921.805 378.359 921.744 377.987C921.682 377.614 921.732 377.231 921.889 376.887C922.045 376.543 922.3 376.253 922.621 376.054C922.942 375.855 923.316 375.756 923.693 375.77C924.195 375.788 924.669 376.003 925.013 376.369C925.356 376.735 925.542 377.221 925.53 377.723Z" fill="#263238"/>
<path d="M917.789 417.936C917.771 418.443 917.553 418.923 917.183 419.271C916.813 419.62 916.321 419.808 915.813 419.795C915.563 419.786 915.317 419.728 915.089 419.624C914.861 419.52 914.656 419.371 914.485 419.188C914.315 419.004 914.182 418.789 914.095 418.554C914.008 418.319 913.968 418.07 913.977 417.819C913.985 417.569 914.041 417.323 914.144 417.094C914.247 416.866 914.394 416.66 914.576 416.489C914.759 416.317 914.973 416.183 915.207 416.094C915.441 416.006 915.691 415.964 915.941 415.971C916.191 415.979 916.438 416.036 916.666 416.139C916.894 416.242 917.1 416.388 917.272 416.571C917.443 416.753 917.577 416.968 917.666 417.202C917.755 417.436 917.797 417.685 917.789 417.936Z" fill="#263238"/>
<path d="M910.025 458.172C910.011 458.549 909.886 458.913 909.665 459.218C909.444 459.523 909.138 459.756 908.785 459.888C908.431 460.019 908.047 460.043 907.68 459.956C907.314 459.869 906.981 459.675 906.724 459.399C906.468 459.123 906.299 458.777 906.239 458.405C906.179 458.033 906.231 457.651 906.387 457.308C906.544 456.966 906.799 456.677 907.12 456.479C907.44 456.281 907.812 456.183 908.189 456.196C908.44 456.202 908.688 456.258 908.917 456.361C909.147 456.465 909.353 456.613 909.524 456.797C909.695 456.981 909.828 457.197 909.914 457.434C910 457.67 910.038 457.921 910.025 458.172Z" fill="#263238"/>
<path d="M931.62 300.039C931.358 300.039 931.104 299.949 930.901 299.784C930.697 299.619 930.557 299.389 930.504 299.133C930.47 298.983 930.465 298.828 930.491 298.677C930.517 298.525 930.573 298.381 930.655 298.251C930.737 298.122 930.844 298.009 930.97 297.921C931.095 297.833 931.237 297.771 931.387 297.738L937.152 296.506C937.303 296.472 937.46 296.469 937.612 296.496C937.765 296.523 937.91 296.581 938.04 296.665C938.17 296.75 938.282 296.859 938.369 296.988C938.456 297.116 938.516 297.26 938.547 297.412C938.577 297.562 938.578 297.716 938.549 297.866C938.52 298.016 938.462 298.159 938.377 298.286C938.293 298.413 938.185 298.523 938.058 298.608C937.932 298.694 937.79 298.753 937.64 298.784L931.875 300.016L931.62 300.039Z" fill="#263238"/>
<path d="M950.889 278.631C948.147 285.743 945.819 293.007 943.916 300.388C942.173 308.593 942.08 326.956 942.08 326.956" fill="#263238"/>
<path d="M942.08 328.119C941.771 328.107 941.479 327.977 941.263 327.757C941.047 327.536 940.923 327.242 940.917 326.933C940.917 326.189 941.057 308.337 942.8 300.155C944.692 292.711 947.021 285.384 949.774 278.212C949.82 278.059 949.898 277.918 950.002 277.796C950.105 277.674 950.233 277.576 950.377 277.506C950.521 277.436 950.677 277.396 950.837 277.389C950.997 277.383 951.156 277.409 951.305 277.467C951.454 277.524 951.59 277.612 951.703 277.725C951.817 277.837 951.906 277.972 951.965 278.121C952.025 278.269 952.052 278.428 952.047 278.588C952.042 278.748 952.004 278.905 951.935 279.049C949.196 286.107 946.868 293.317 944.962 300.643C943.265 308.64 943.149 326.77 943.126 326.956C943.127 327.245 943.021 327.525 942.827 327.74C942.634 327.955 942.367 328.09 942.08 328.119Z" fill="#263238"/>
<path d="M517.075 528.743C520.306 476.675 514.379 382 612.262 394.552C717.165 407.964 687.156 530.649 687.156 530.649L517.075 528.743Z" fill="#263238"/>
<path d="M584.624 497.455C608.22 497.455 627.348 478.327 627.348 454.732C627.348 431.136 608.22 412.008 584.624 412.008C561.029 412.008 541.901 431.136 541.901 454.732C541.901 478.327 561.029 497.455 584.624 497.455Z" fill="white"/>
<path d="M590.249 412.078C570.003 408.638 548.409 423.538 546.247 438.647L626.464 446.038C623.629 428.814 606.288 414.821 590.249 412.078Z" fill="#263238"/>
<path d="M617.33 453.663C616.748 464.843 610.658 473.606 603.731 473.235C596.805 472.863 591.644 463.542 592.109 452.314C592.574 441.087 598.78 432.371 605.707 432.742C612.634 433.114 617.887 442.505 617.33 453.663Z" fill="#263238"/>
<path d="M584.624 499.78C575.715 499.78 567.005 497.138 559.597 492.188C552.189 487.238 546.415 480.202 543.005 471.971C539.596 463.74 538.704 454.682 540.442 445.943C542.18 437.205 546.47 429.178 552.77 422.878C559.071 416.578 567.097 412.288 575.836 410.549C584.574 408.811 593.632 409.703 601.863 413.113C610.095 416.523 617.13 422.296 622.08 429.705C627.03 437.113 629.672 445.822 629.672 454.732C629.66 466.676 624.91 478.127 616.464 486.572C608.019 495.017 596.568 499.768 584.624 499.78ZM584.624 414.356C576.633 414.356 568.821 416.726 562.177 421.166C555.533 425.606 550.355 431.917 547.298 439.3C544.241 446.684 543.442 454.808 545.003 462.645C546.564 470.482 550.414 477.681 556.066 483.33C561.718 488.979 568.919 492.825 576.757 494.381C584.595 495.937 592.719 495.134 600.1 492.072C607.482 489.011 613.79 483.829 618.226 477.183C622.662 470.536 625.028 462.723 625.023 454.732C625.011 444.023 620.75 433.757 613.176 426.187C605.601 418.617 595.333 414.362 584.624 414.356Z" fill="#FA8802"/>
<path opacity="0.3" d="M675.232 527.441H674.953C674.804 527.408 674.663 527.346 674.538 527.257C674.413 527.169 674.308 527.056 674.227 526.926C674.147 526.796 674.094 526.651 674.071 526.5C674.048 526.349 674.055 526.194 674.093 526.046C674.093 525.744 681.578 494.224 673.884 462.356C673.81 462.048 673.862 461.723 674.027 461.453C674.193 461.182 674.459 460.989 674.767 460.915C675.076 460.841 675.401 460.892 675.671 461.058C675.941 461.224 676.135 461.49 676.209 461.798C684.042 494.341 676.487 526.279 676.418 526.581C676.349 526.838 676.193 527.065 675.978 527.221C675.762 527.378 675.499 527.455 675.232 527.441Z" fill="white"/>
<path opacity="0.3" d="M668.747 444.876C668.524 444.873 668.306 444.809 668.117 444.69C667.928 444.571 667.776 444.402 667.677 444.202C664.789 437.816 661.085 431.831 656.66 426.397C656.467 426.159 656.376 425.854 656.406 425.55C656.437 425.245 656.586 424.965 656.822 424.77C656.941 424.671 657.078 424.596 657.225 424.551C657.373 424.505 657.528 424.49 657.682 424.505C657.835 424.52 657.984 424.566 658.12 424.639C658.256 424.712 658.376 424.812 658.473 424.932C663.008 430.525 666.812 436.672 669.793 443.226C669.859 443.363 669.897 443.512 669.905 443.664C669.912 443.816 669.89 443.968 669.838 444.111C669.786 444.254 669.706 444.385 669.602 444.496C669.498 444.608 669.374 444.697 669.235 444.76C669.082 444.831 668.916 444.871 668.747 444.876Z" fill="white"/>
<path d="M299.227 772.997H298.367C295.285 772.91 292.363 771.603 290.244 769.362C288.126 767.122 286.984 764.131 287.07 761.049C287.157 757.966 288.464 755.045 290.705 752.926C292.945 750.807 295.936 749.666 299.018 749.752H299.227C305.945 749.752 322.1 741.593 355.898 688.317C356.795 686.902 357.987 685.697 359.393 684.786C360.799 683.875 362.386 683.279 364.044 683.038C365.702 682.798 367.392 682.919 368.999 683.392C370.606 683.866 372.092 684.681 373.354 685.783C399.896 708.6 428.844 728.459 459.685 745.01C461.112 745.659 462.393 746.591 463.451 747.748C464.509 748.905 465.322 750.264 465.841 751.744C466.359 753.224 466.574 754.793 466.47 756.357C466.366 757.922 465.947 759.449 465.238 760.848C464.529 762.246 463.544 763.486 462.342 764.494C461.141 765.502 459.748 766.256 458.248 766.711C456.747 767.166 455.17 767.313 453.612 767.143C452.053 766.973 450.545 766.489 449.178 765.721C420.515 750.49 393.42 732.474 368.287 711.933C339.952 754.587 318.939 772.997 299.227 772.997Z" fill="#263238"/>
<path d="M371.146 683.691H370.147C368.32 683.426 366.673 682.448 365.566 680.971C364.46 679.494 363.984 677.638 364.243 675.811C365.893 664.189 363.847 620.884 349.18 587.18C348.53 585.69 348.42 584.02 348.87 582.458C349.319 580.896 350.301 579.541 351.644 578.625C383.489 556.938 451.317 554.335 454.199 554.242C455.115 554.211 456.028 554.362 456.885 554.684C457.743 555.006 458.529 555.494 459.198 556.12C459.867 556.746 460.407 557.498 460.785 558.332C461.164 559.166 461.374 560.067 461.405 560.983C461.435 561.899 461.285 562.811 460.963 563.669C460.641 564.527 460.153 565.313 459.527 565.982C458.901 566.651 458.149 567.19 457.315 567.569C456.481 567.948 455.58 568.158 454.664 568.189C454.036 568.189 394.74 570.513 364.289 587.249C377.26 620.814 380.212 662.631 378.05 677.764C377.799 679.415 376.965 680.921 375.698 682.008C374.431 683.096 372.816 683.693 371.146 683.691Z" fill="#263238"/>
<path d="M382.862 674.672C378.213 663.724 357.293 664.956 345.043 674.347C338.488 679.344 329.608 694.43 328.771 699.916C328.492 701.219 328.534 702.571 328.893 703.855C329.252 705.138 329.918 706.316 330.832 707.285C331.747 708.255 332.884 708.988 334.144 709.421C335.405 709.854 336.752 709.974 338.069 709.771C346.089 709.074 357.083 697.428 357.083 697.428C349.761 704.611 359.222 709.678 373.355 699.288C381.072 693.5 388.045 686.922 382.862 674.672Z" fill="#FA8802"/>
<path d="M782.668 531.811C782.561 531.835 782.45 531.835 782.343 531.811C782.194 531.771 782.056 531.701 781.935 531.607C781.814 531.512 781.714 531.393 781.64 531.259C781.566 531.124 781.521 530.976 781.506 530.823C781.49 530.67 781.506 530.516 781.552 530.37C784.644 519.584 788.014 513.006 792.454 509.45C791.758 506.95 791.889 504.292 792.826 501.872C793.909 499.047 795.821 496.616 798.312 494.898C797.635 494.167 797.154 493.276 796.914 492.309C796.674 491.342 796.683 490.329 796.94 489.366C797.782 486.454 799.523 483.883 801.915 482.021C801.052 481.056 800.58 479.805 800.59 478.511C800.59 471.538 813.397 461.031 827.925 459.032C828.234 458.989 828.546 459.07 828.795 459.257C829.043 459.445 829.207 459.723 829.25 460.032C829.293 460.34 829.212 460.653 829.025 460.901C828.837 461.15 828.559 461.313 828.251 461.357C814.443 463.239 802.868 473.235 802.914 478.511C802.909 479.298 803.209 480.056 803.751 480.626C806.878 478.506 810.396 477.029 814.099 476.283C817.803 475.537 821.618 475.536 825.322 476.28C832.458 477.651 835.364 479.162 835.038 481.324C834.387 485.391 819.209 486.251 809.027 485.043C807.204 484.877 805.429 484.364 803.797 483.532C801.606 485.092 799.975 487.317 799.149 489.878C798.949 490.555 798.951 491.276 799.153 491.953C799.355 492.629 799.749 493.233 800.288 493.69C804.611 491.365 810.678 490.528 818.697 492.295C829.227 494.62 829.622 495.898 829.878 496.665C829.96 496.936 829.966 497.224 829.897 497.499C829.827 497.773 829.684 498.023 829.483 498.222C827.274 500.547 811.119 499.454 803.007 497.455C802.028 497.232 801.082 496.88 800.195 496.409C797.793 497.868 795.945 500.084 794.941 502.709C794.27 504.407 794.085 506.258 794.407 508.055C794.82 507.807 795.247 507.582 795.685 507.381C800.497 505.056 806.308 505.475 813.49 508.543C818.139 510.565 820.464 512.378 820.696 514.215C820.706 514.686 820.589 515.151 820.355 515.56C820.122 515.97 819.782 516.308 819.371 516.539C815.815 518.864 803.402 518.538 796.94 515.098C795.454 514.291 794.217 513.093 793.361 511.635C789.572 515.121 786.503 521.328 783.714 531.067C783.63 531.278 783.486 531.461 783.301 531.593C783.115 531.725 782.895 531.8 782.668 531.811ZM795.267 510.124C795.914 511.326 796.9 512.312 798.103 512.959C803.356 515.749 813.676 516.376 817.535 514.819C818.325 514.494 818.442 514.238 818.442 514.238C818.442 514.238 818.325 512.936 812.63 510.496C806.122 507.706 801.008 507.311 796.754 509.287C796.241 509.534 795.744 509.813 795.267 510.124ZM803.03 494.852L803.611 495.015C811.181 496.759 818.971 497.347 826.717 496.758C823.969 495.739 821.138 494.961 818.256 494.434C813.249 493.077 807.955 493.223 803.03 494.852ZM805.959 481.789C807.032 482.173 808.149 482.423 809.283 482.532C820.905 483.904 831.11 482.3 832.528 480.836C832.133 480.487 830.575 479.487 824.811 478.395C818.324 477.101 811.588 478.314 805.959 481.789Z" fill="#263238"/>
<path d="M480.07 769.115C481.605 768.627 481.093 767.139 479.373 767.139H447.9C387.975 760.793 346.112 769.301 372.495 771.3C398.877 773.299 370.635 772.88 351.365 780.179C332.095 787.478 494.668 789.314 509.428 780.179C523.003 771.765 458.825 775.925 480.07 769.115Z" fill="#263238"/>
<path d="M705.403 778.389L431.582 769.301L420.216 503.801L743.571 511.03L705.403 778.389Z" fill="#FA8802"/>
<path d="M517.076 773.299C516.783 773.3 516.501 773.19 516.285 772.992C516.07 772.794 515.937 772.521 515.914 772.23L493.971 505.568C493.951 505.261 494.052 504.958 494.251 504.724C494.451 504.49 494.734 504.342 495.04 504.313C495.346 504.299 495.645 504.401 495.878 504.6C496.111 504.798 496.26 505.078 496.295 505.382L518.354 772.044C518.367 772.196 518.349 772.35 518.302 772.496C518.255 772.642 518.18 772.777 518.081 772.894C517.981 773.01 517.86 773.106 517.723 773.176C517.587 773.245 517.438 773.287 517.285 773.299H517.076Z" fill="#263238"/>
<path d="M705.404 778.389L778.996 767.185L802.171 520.305L743.571 511.03L705.404 778.389Z" fill="#FA8802"/>
<path opacity="0.2" d="M705.404 778.389L778.996 767.185L802.171 520.305L743.571 511.03L705.404 778.389Z" fill="black"/>
<path d="M454.966 718.139L448.225 560.379C448.059 556.481 448.694 552.591 450.091 548.949C451.488 545.307 453.617 541.99 456.347 539.204C459.077 536.417 462.349 534.22 465.962 532.749C469.575 531.277 473.451 530.562 477.351 530.649L682.042 535.298C686.073 535.389 690.038 536.333 693.677 538.069C697.316 539.804 700.546 542.292 703.153 545.367C705.76 548.442 707.686 552.035 708.803 555.909C709.92 559.782 710.203 563.849 709.634 567.84L686.947 726.693C685.965 733.651 682.45 740.001 677.075 744.527C671.701 749.052 664.844 751.434 657.821 751.216L482.581 745.405C475.387 745.183 468.543 742.25 463.421 737.193C458.3 732.136 455.279 725.33 454.966 718.139Z" fill="#263238"/>
<path d="M477.095 579.067L508.754 580.067L508.498 588.225L488.671 587.598L488.485 593.688L506.871 594.269L506.616 602.079L488.229 601.475L487.997 609.029L508.382 609.68L508.103 618.327L475.863 617.304L477.095 579.067Z" fill="white"/>
<path d="M514.635 618.536L515.844 580.299L535.555 580.927C538.381 580.912 541.194 581.32 543.9 582.135C545.818 582.778 547.459 584.057 548.549 585.762C549.357 587.003 549.9 588.397 550.146 589.857C550.391 591.318 550.334 592.813 549.976 594.25C549.618 595.687 548.969 597.035 548.067 598.21C547.166 599.385 546.032 600.362 544.737 601.08C543.415 601.76 541.996 602.231 540.529 602.474C541.61 602.823 542.636 603.324 543.575 603.962C544.253 604.592 544.861 605.293 545.388 606.054C545.986 606.778 546.516 607.556 546.968 608.379L552.338 619.652L538.995 619.211L533.045 607.333C532.573 606.198 531.877 605.171 530.999 604.311C530.165 603.707 529.169 603.367 528.14 603.334H527.094L526.606 618.839L514.635 618.536ZM527.234 596.175L532.208 596.338C533.264 596.274 534.313 596.126 535.346 595.896C536.124 595.778 536.829 595.371 537.322 594.757C537.825 594.137 538.11 593.37 538.135 592.572C538.179 592.041 538.104 591.506 537.915 591.007C537.726 590.509 537.428 590.059 537.043 589.69C535.746 588.852 534.214 588.453 532.673 588.551L527.466 588.388L527.234 596.175Z" fill="white"/>
<path d="M556.196 619.768L557.405 581.531L577.093 582.159C579.919 582.142 582.732 582.549 585.438 583.367C587.36 584.003 589.002 585.284 590.087 586.993C591.266 588.856 591.82 591.047 591.667 593.246C591.674 595.101 591.178 596.924 590.233 598.52C589.288 600.116 587.928 601.426 586.298 602.312C584.975 602.988 583.556 603.459 582.091 603.706C583.165 604.053 584.183 604.554 585.112 605.194C585.807 605.805 586.424 606.5 586.949 607.263C587.543 607.99 588.072 608.767 588.529 609.587L593.899 620.838L580.556 620.419L574.606 608.541C574.13 607.409 573.435 606.382 572.56 605.519C571.73 604.892 570.719 604.55 569.678 604.543H568.655L568.144 620.071L556.196 619.768ZM568.771 597.407L573.769 597.547C574.826 597.506 575.877 597.366 576.907 597.128C577.68 597.013 578.379 596.605 578.86 595.989C579.38 595.38 579.668 594.606 579.673 593.804C579.724 593.274 579.654 592.74 579.468 592.241C579.283 591.742 578.988 591.291 578.604 590.922C577.307 590.063 575.761 589.662 574.211 589.783L569.027 589.62L568.771 597.407Z" fill="white"/>
<path d="M595.805 602.009C595.626 599.341 596.039 596.666 597.017 594.177C597.994 591.688 599.511 589.446 601.457 587.612C603.404 585.779 605.733 584.399 608.276 583.573C610.82 582.746 613.515 582.494 616.167 582.833C618.844 582.744 621.512 583.194 624.012 584.157C626.511 585.119 628.792 586.574 630.719 588.435C632.438 590.415 633.737 592.723 634.536 595.221C635.335 597.718 635.618 600.352 635.367 602.962C635.386 606.76 634.493 610.507 632.764 613.887C631.197 616.654 628.853 618.9 626.023 620.349C622.687 621.944 618.996 622.649 615.307 622.395C611.63 622.426 607.992 621.632 604.661 620.071C601.826 618.532 599.512 616.186 598.013 613.33C596.256 609.829 595.492 605.914 595.805 602.009ZM607.613 602.428C607.265 605.358 607.929 608.319 609.496 610.819C610.229 611.637 611.119 612.299 612.114 612.766C613.108 613.233 614.186 613.495 615.283 613.536C616.381 613.577 617.476 613.397 618.502 613.006C619.529 612.615 620.466 612.022 621.258 611.261C622.981 608.651 623.798 605.548 623.582 602.428C623.894 599.626 623.211 596.804 621.653 594.455C620.949 593.643 620.077 592.992 619.099 592.547C618.12 592.101 617.057 591.872 615.981 591.875C614.897 591.797 613.808 591.965 612.798 592.368C611.787 592.771 610.881 593.397 610.147 594.199C608.387 596.572 607.493 599.476 607.613 602.428Z" fill="white"/>
<path d="M641.341 622.581L642.55 584.32L662.238 584.948C665.064 584.943 667.875 585.351 670.583 586.157C672.496 586.809 674.134 588.086 675.232 589.783C676.406 591.648 676.959 593.837 676.813 596.036C676.824 597.895 676.33 599.722 675.384 601.322C674.439 602.923 673.077 604.237 671.443 605.124C670.114 605.782 668.697 606.244 667.236 606.496C668.311 606.849 669.329 607.358 670.258 608.007C670.952 608.618 671.569 609.313 672.094 610.075C672.693 610.799 673.222 611.577 673.675 612.4L679.044 623.673L665.702 623.255L659.751 611.354C659.278 610.227 658.582 609.207 657.706 608.355C656.872 607.731 655.864 607.382 654.823 607.356H653.8L653.289 622.883L641.341 622.581ZM653.917 600.196L658.914 600.359C659.971 600.319 661.022 600.179 662.052 599.941C662.822 599.817 663.518 599.411 664.005 598.802C664.554 598.154 664.843 597.326 664.818 596.477C664.869 595.951 664.798 595.42 664.613 594.925C664.428 594.429 664.132 593.982 663.749 593.618C662.453 592.759 660.906 592.358 659.356 592.479L654.172 592.317L653.917 600.196Z" fill="white"/>
<path d="M660.146 687.55C659.71 687.558 659.277 687.473 658.876 687.301C658.475 687.128 658.116 686.872 657.822 686.55L637.924 664.77L616.446 684.388C615.851 684.933 615.064 685.22 614.258 685.185C613.451 685.15 612.692 684.797 612.146 684.202L592.249 662.422L570.771 682.041C570.176 682.586 569.388 682.872 568.582 682.838C567.776 682.803 567.016 682.449 566.47 681.855L546.55 660.074L525.095 679.693C524.782 679.976 524.414 680.193 524.015 680.329C523.615 680.465 523.191 680.517 522.771 680.483C521.963 680.435 521.205 680.077 520.655 679.484L500.758 657.727L479.303 677.322C478.704 677.869 477.913 678.156 477.103 678.121C476.293 678.086 475.53 677.732 474.98 677.136C474.708 676.841 474.498 676.496 474.362 676.119C474.225 675.742 474.165 675.342 474.184 674.942C474.204 674.542 474.303 674.15 474.475 673.788C474.648 673.426 474.89 673.103 475.189 672.836L498.898 651.149C499.497 650.602 500.288 650.315 501.098 650.35C501.909 650.384 502.672 650.738 503.222 651.334L523.119 673.115L544.574 653.496C545.183 652.961 545.972 652.679 546.782 652.706C547.591 652.749 548.351 653.108 548.897 653.705L568.795 675.486L590.273 655.867C590.566 655.594 590.911 655.383 591.286 655.244C591.662 655.106 592.062 655.043 592.462 655.06C592.862 655.078 593.255 655.174 593.617 655.345C593.98 655.515 594.304 655.756 594.573 656.053L614.47 677.833L635.948 658.215C636.543 657.67 637.331 657.383 638.137 657.418C638.943 657.453 639.703 657.806 640.249 658.401L662.47 682.529C662.868 682.973 663.127 683.522 663.217 684.111C663.307 684.7 663.223 685.302 662.977 685.844C662.731 686.386 662.332 686.845 661.829 687.164C661.326 687.484 660.742 687.65 660.146 687.643V687.55Z" fill="white"/>
<path d="M292.301 784.038L277.75 777.088L264.779 713.932L271.822 706.192L292.301 784.038Z" fill="#FA8802"/>
<path d="M292.301 784.038L311.617 772.741L295.067 720.72L271.822 706.192L292.301 784.038Z" fill="#FA8802"/>
<path opacity="0.2" d="M292.301 784.038L311.617 772.741L295.067 720.72L271.822 706.192L292.301 784.038Z" fill="black"/>
<path d="M609.008 795.521H607.404C604.322 795.437 601.398 794.133 599.278 791.895C597.157 789.656 596.012 786.667 596.096 783.585C596.179 780.502 597.483 777.579 599.721 775.458C601.96 773.337 604.949 772.193 608.032 772.276C625.93 772.857 663.819 761.862 685.483 740.849C686.791 739.566 688.384 738.61 690.131 738.06C726.835 727.042 740.479 749.287 741.037 750.24L721.047 762.072C721.117 762.22 721.203 762.36 721.302 762.49C721.093 762.188 715.886 755.517 699.336 759.608C672.163 784.386 630.463 795.521 609.008 795.521Z" fill="#263238"/>
<path d="M607.59 810.955L565.262 808.305L561.938 730.25L618.817 732.365L607.59 810.955Z" fill="#FA8802"/>
<path d="M607.59 810.955L617.492 801.099L623.629 752.448L618.817 732.365L607.59 810.955Z" fill="#FA8802"/>
<path opacity="0.2" d="M607.59 810.955L617.492 801.099L623.629 752.448L618.817 732.365L607.59 810.955Z" fill="black"/>
<path d="M852.867 781.411C851.347 781.41 849.87 780.912 848.66 779.993C824.485 761.63 791.827 729.018 779.298 697.568C779.11 697.113 778.977 696.637 778.903 696.15C772.789 659.796 766.955 583.298 766.699 580.067C766.631 579.151 766.743 578.231 767.03 577.358C767.317 576.486 767.773 575.679 768.372 574.983C769.582 573.577 771.3 572.709 773.15 572.57C774.999 572.432 776.828 573.033 778.234 574.243C779.64 575.453 780.507 577.171 780.646 579.021C780.646 579.788 786.62 657.029 792.57 693.082C805.076 723.672 839.06 755.075 857.144 768.882C858.308 769.766 859.166 770.993 859.595 772.39C860.024 773.787 860.004 775.284 859.536 776.669C859.068 778.054 858.178 779.256 856.989 780.107C855.801 780.958 854.375 781.414 852.913 781.411H852.867Z" fill="#263238"/>
<path d="M885.107 784.921C879.714 784.921 873.601 782.48 866.93 777.669C865.432 776.584 864.426 774.948 864.134 773.122C863.842 771.295 864.288 769.427 865.373 767.929C866.458 766.431 868.093 765.426 869.92 765.134C871.746 764.841 873.614 765.287 875.112 766.372C880.877 770.533 884.015 771.021 885.107 771.021C886.957 771.021 888.73 771.756 890.038 773.063C891.346 774.371 892.081 776.145 892.081 777.994C892.081 779.844 891.346 781.617 890.038 782.925C888.73 784.233 886.957 784.968 885.107 784.968V784.921Z" fill="#263238"/>
<path d="M868.882 777.46C876.344 755.307 906.934 759.677 917.487 762.978C926.501 765.595 935.147 769.344 943.219 774.136C948.913 777.855 949.006 784.108 941.405 787.664C932.108 792.034 908.491 788.152 908.491 788.152C920.671 793.475 908.491 802.099 887.083 793.638C880.133 790.895 866.256 785.595 868.882 777.46Z" fill="#FA8802"/>
<path d="M794.639 589.55C791.873 608.378 776.276 622.255 763.584 620.396C750.893 618.536 750.382 601.8 753.148 582.879C755.914 563.958 760.935 550.337 773.626 552.196C786.318 554.056 797.405 570.792 794.639 589.55Z" fill="#263238"/>
<path d="M487.857 514.47C488.91 514.47 489.764 513.617 489.764 512.564C489.764 511.512 488.91 510.658 487.857 510.658C486.805 510.658 485.951 511.512 485.951 512.564C485.951 513.617 486.805 514.47 487.857 514.47Z" fill="#263238"/>
<path d="M507.22 526.279C507.22 526.656 507.108 527.024 506.899 527.338C506.689 527.651 506.392 527.895 506.043 528.04C505.695 528.184 505.312 528.222 504.942 528.148C504.572 528.075 504.233 527.893 503.966 527.626C503.7 527.36 503.518 527.02 503.445 526.651C503.371 526.281 503.409 525.898 503.553 525.549C503.697 525.201 503.942 524.903 504.255 524.694C504.569 524.484 504.937 524.373 505.314 524.373C505.82 524.373 506.304 524.573 506.662 524.931C507.019 525.288 507.22 525.773 507.22 526.279Z" fill="#263238"/>
<path d="M509.358 751.519C509.358 751.896 509.246 752.264 509.037 752.578C508.828 752.891 508.53 753.135 508.182 753.28C507.833 753.424 507.45 753.462 507.08 753.388C506.711 753.314 506.371 753.133 506.104 752.866C505.838 752.6 505.656 752.26 505.583 751.89C505.509 751.521 505.547 751.137 505.691 750.789C505.835 750.441 506.08 750.143 506.393 749.934C506.707 749.724 507.075 749.612 507.452 749.612C507.958 749.612 508.443 749.813 508.8 750.171C509.157 750.528 509.358 751.013 509.358 751.519Z" fill="#263238"/>
<path d="M526.815 765.256C526.815 765.633 526.703 766.002 526.494 766.315C526.284 766.629 525.987 766.873 525.638 767.017C525.29 767.161 524.907 767.199 524.537 767.126C524.167 767.052 523.828 766.87 523.561 766.604C523.295 766.337 523.113 765.998 523.04 765.628C522.966 765.258 523.004 764.875 523.148 764.527C523.292 764.178 523.537 763.881 523.85 763.671C524.163 763.462 524.532 763.35 524.909 763.35C525.415 763.35 525.899 763.551 526.257 763.908C526.614 764.266 526.815 764.751 526.815 765.256Z" fill="#263238"/>
<path d="M191.791 788.106C188.445 787.949 185.176 787.043 182.227 785.454C179.278 783.865 176.724 781.633 174.753 778.924C174.656 778.799 174.586 778.656 174.546 778.504C174.507 778.351 174.499 778.192 174.522 778.036C174.546 777.88 174.602 777.731 174.685 777.597C174.769 777.463 174.878 777.348 175.008 777.258C175.137 777.168 175.284 777.105 175.438 777.073C175.593 777.042 175.752 777.042 175.907 777.074C176.061 777.106 176.207 777.169 176.337 777.259C176.466 777.349 176.576 777.465 176.659 777.599C181.005 783.875 190.606 787.199 194.79 785.223C195.209 785.045 195.582 784.775 195.882 784.433C193.768 783.503 191.915 782.066 190.488 780.25C189.061 778.433 188.104 776.294 187.7 774.019C187.165 771.067 186.747 767.046 189.164 766.535C192.512 765.791 196.882 773.857 198.462 779.97C198.748 780.982 198.851 782.037 198.764 783.085C200.105 783.484 201.515 783.595 202.902 783.41C203.527 783.362 204.135 783.184 204.687 782.888C205.239 782.592 205.724 782.184 206.11 781.69C204.58 780.536 203.311 779.072 202.386 777.393C201.46 775.715 200.9 773.86 200.74 771.951C199.857 765.582 200.531 764.489 201.228 763.931C201.454 763.758 201.724 763.651 202.007 763.622C202.29 763.593 202.576 763.644 202.832 763.769C205.319 764.815 208.318 773.833 208.899 778.947C208.969 779.48 208.969 780.019 208.899 780.551C209.901 780.936 210.964 781.141 212.037 781.155C214.008 781.232 215.958 780.722 217.639 779.691C217.314 779.482 217.011 779.249 216.709 779.017C214.385 776.948 213.315 773.647 213.734 768.952C214.059 765.303 214.873 763.304 216.337 762.676C216.81 762.486 217.327 762.438 217.826 762.537C218.326 762.636 218.786 762.878 219.15 763.234C220.719 764.967 221.892 767.02 222.586 769.252C223.281 771.484 223.48 773.841 223.171 776.158C222.969 777.123 222.565 778.034 221.986 778.831C226.263 779.575 232.26 778.366 237.443 777.088C237.596 777.051 237.754 777.045 237.909 777.069C238.064 777.094 238.213 777.149 238.347 777.231C238.481 777.313 238.597 777.42 238.689 777.547C238.782 777.674 238.848 777.818 238.884 777.971C238.921 778.124 238.927 778.282 238.903 778.437C238.878 778.592 238.823 778.741 238.741 778.874C238.659 779.008 238.552 779.125 238.425 779.217C238.298 779.309 238.154 779.375 238.001 779.412C231.702 780.969 224.914 782.248 220.126 780.853C217.789 782.63 214.926 783.579 211.991 783.55C210.688 783.532 209.398 783.289 208.178 782.829C207.638 783.665 206.912 784.366 206.058 784.878C205.203 785.39 204.243 785.699 203.251 785.781C201.503 786.006 199.728 785.855 198.044 785.34C197.501 786.253 196.689 786.976 195.719 787.408C194.473 787.911 193.135 788.149 191.791 788.106ZM189.792 768.859C189.47 770.439 189.534 772.074 189.978 773.624C190.306 775.483 191.077 777.235 192.226 778.732C193.375 780.229 194.869 781.427 196.579 782.225C196.547 781.674 196.453 781.128 196.3 780.598C194.487 773.95 191.001 769.371 189.792 768.859ZM202.739 766.837C202.754 768.44 202.886 770.041 203.134 771.625C203.391 774.459 204.642 777.111 206.668 779.11C206.095 774.818 204.765 770.663 202.739 766.837ZM217.36 764.815C217.36 764.815 216.477 765.256 216.151 769.138C215.826 773.02 216.5 775.693 218.313 777.25C218.742 777.598 219.21 777.894 219.708 778.134C220.319 777.48 220.751 776.679 220.963 775.809C221.377 772.15 220.389 768.471 218.197 765.512C217.709 764.908 217.43 764.815 217.36 764.815Z" fill="#263238"/>
<path d="M531.999 805.678L538.298 794.753L531.999 783.828H525.258L529.07 794.753L525.258 805.678H531.999Z" fill="#263238"/>
<path d="M525.7 800.448C524.923 800.498 524.144 800.388 523.411 800.125C522.678 799.862 522.007 799.451 521.44 798.919C520.872 798.386 520.419 797.743 520.11 797.028C519.801 796.314 519.641 795.544 519.641 794.765C519.641 793.987 519.801 793.216 520.11 792.502C520.419 791.788 520.872 791.144 521.44 790.612C522.007 790.079 522.678 789.668 523.411 789.405C524.144 789.142 524.923 789.032 525.7 789.082L515.007 786.943L512.148 795.59L516.936 802.889L525.7 800.448Z" fill="#263238"/>
<path d="M526.629 783.828H514.007L507.708 794.753L514.007 805.678H526.629L532.928 794.753L526.629 783.828ZM520.33 800.448C519.203 800.453 518.099 800.123 517.16 799.5C516.22 798.877 515.486 797.989 515.052 796.949C514.617 795.909 514.501 794.763 514.718 793.657C514.935 792.551 515.476 791.534 516.271 790.735C517.067 789.936 518.082 789.391 519.187 789.17C520.292 788.948 521.439 789.06 522.481 789.49C523.522 789.92 524.413 790.65 525.04 791.587C525.667 792.524 526.001 793.626 526.001 794.753C526.001 796.26 525.405 797.705 524.342 798.772C523.279 799.84 521.836 800.442 520.33 800.448Z" fill="#FA8802"/>
<path d="M971.368 783.085L966.696 774.972L971.368 766.86H976.365L973.553 774.972L976.365 783.085H971.368Z" fill="#FA8802"/>
<path d="M976.04 779.203C976.62 779.246 977.203 779.169 977.752 778.976C978.302 778.784 978.805 778.48 979.232 778.084C979.658 777.688 979.998 777.208 980.231 776.675C980.464 776.142 980.584 775.566 980.584 774.984C980.584 774.402 980.464 773.826 980.231 773.293C979.998 772.759 979.658 772.28 979.232 771.884C978.805 771.488 978.302 771.184 977.752 770.992C977.203 770.799 976.62 770.722 976.04 770.765L983.989 769.184L986.105 775.6L982.572 781.016L976.04 779.203Z" fill="#FA8802"/>
<path d="M975.366 766.86H984.664L989.312 774.972L984.664 783.085H975.366L970.717 774.972L975.366 766.86ZM980.015 779.203C980.852 779.207 981.673 778.963 982.371 778.501C983.07 778.039 983.616 777.38 983.94 776.607C984.263 775.835 984.351 774.984 984.19 774.161C984.029 773.339 983.628 772.583 983.038 771.989C982.447 771.395 981.693 770.99 980.872 770.825C980.051 770.66 979.199 770.742 978.424 771.062C977.65 771.381 976.988 771.923 976.522 772.62C976.056 773.316 975.807 774.135 975.807 774.972C975.804 775.529 975.912 776.08 976.123 776.595C976.335 777.11 976.646 777.577 977.04 777.971C977.433 778.364 977.901 778.676 978.415 778.887C978.93 779.099 979.481 779.206 980.038 779.203H980.015Z" fill="#263238"/>
<path d="M797.289 793.87H807.795C809.111 793.864 810.37 793.337 811.298 792.405C812.226 791.473 812.746 790.211 812.746 788.896C812.746 787.581 812.226 786.319 811.298 785.387C810.37 784.454 809.111 783.928 807.795 783.922H797.289C795.97 783.922 794.704 784.446 793.771 785.378C792.839 786.311 792.314 787.577 792.314 788.896C792.314 790.215 792.839 791.48 793.771 792.413C794.704 793.346 795.97 793.87 797.289 793.87Z" fill="#263238"/>
<path d="M780.39 784.479C781.365 782.706 782.838 781.257 784.627 780.311C786.415 779.364 788.442 778.962 790.457 779.154C792.471 779.345 794.386 780.123 795.964 781.389C797.542 782.656 798.715 784.357 799.338 786.282C799.961 788.208 800.007 790.273 799.47 792.224C798.933 794.176 797.837 795.927 796.317 797.263C794.797 798.598 792.919 799.46 790.915 799.741C788.911 800.022 786.868 799.71 785.039 798.845C782.525 797.548 780.626 795.311 779.755 792.62C778.884 789.929 779.112 787.003 780.39 784.479Z" fill="#FA8802"/>
<path d="M783.225 798.842L786.105 800.2L796.116 778.964L793.236 777.606L783.225 798.842Z" fill="#263238"/>
</svg>
