<svg width="60" height="60" viewBox="0 0 60 60" fill="none" xmlns="http://www.w3.org/2000/svg">
<path d="M12 51.7235H18C19.1016 51.7235 20 50.794 20 49.6545C20 48.515 19.1016 47.5856 18 47.5856H12C7.5898 47.5856 4 43.872 4 39.3098V12.4136C4 7.85141 7.5898 4.13788 12 4.13788H45C49.4102 4.13788 53 7.85141 53 12.4136V13.4481C53 14.5877 53.8984 15.517 55 15.517C56.1016 15.517 57 14.5876 57 13.4481V12.4136C57 5.56431 51.6211 0 45 0H12C5.3789 0 0 5.56431 0 12.4136V39.3098C0 46.1591 5.3789 51.7235 12 51.7235Z" fill="#396EF1"/>
<path d="M60 57.9302V57.413C60 50.4303 55.9219 44.4211 50.1016 41.7832C52.4805 39.6941 54 36.5786 54 33.1034C54 26.8239 49.0703 21.7242 43 21.7242C36.9297 21.7242 32 26.8239 32 33.1034C32 36.7563 33.6797 40.0053 36.2812 42.0944C30.8007 44.8786 27 50.6894 27 57.4138V57.9311C27 59.0706 27.8984 60 29 60C30.1016 60 31 59.0706 31 57.9311V57.4138C31 50.2857 36.6094 44.483 43.5 44.483C50.3906 44.483 56 50.2857 56 57.4138V57.9311C56 59.0706 56.8984 60 58 60C59.1016 60 60 59.0698 60 57.9302ZM43 40.3443C39.1406 40.3443 36 37.0954 36 33.103C36 29.1106 39.1406 25.8617 43 25.8617C46.8594 25.8617 50 29.1106 50 33.103C50 37.0954 46.8594 40.3443 43 40.3443Z" fill="#396EF1"/>
</svg>
