<svg width="255" height="287" viewBox="0 0 255 287" fill="none" xmlns="http://www.w3.org/2000/svg">
<circle cx="121.1" cy="157.694" r="95.5" transform="rotate(16.1681 121.1 157.694)" fill="#396EF1"/>
<path d="M20.2202 188.314L68.06 88.6009L103.804 98.9639L94.7549 117.933L95.8463 118.249C100.974 112.637 107.047 108.778 114.066 106.672C121.086 104.566 128.256 104.574 135.578 106.697C142.899 108.82 148.335 112.515 151.885 117.784C155.449 123.008 156.324 128.832 154.51 135.257L155.602 135.574C160.28 129.979 166.386 126.179 173.918 124.172C181.464 122.12 189.148 122.228 196.97 124.496C206.929 127.383 213.565 132.807 216.877 140.768C220.235 148.742 219.448 157.831 214.517 168.036L182.296 235.304L144.642 224.387L172.73 166.274C174.699 161.865 175.104 158.088 173.945 154.942C172.8 151.751 170.272 149.588 166.361 148.454C162.495 147.334 158.839 147.703 155.391 149.563C152.002 151.39 149.323 154.508 147.355 158.917L119.266 217.03L83.2497 206.588L111.338 148.475C113.306 144.066 113.711 140.289 112.553 137.143C111.408 133.952 108.879 131.789 104.969 130.655C102.422 129.917 99.9313 129.836 97.4966 130.412C95.1074 131.001 92.9076 132.212 90.8973 134.044C88.9456 135.845 87.3007 138.203 85.9626 141.118L57.8742 199.231L20.2202 188.314Z" fill="white"/>
</svg>
