<svg width="70" height="60" viewBox="0 0 70 60" fill="none" xmlns="http://www.w3.org/2000/svg">
<path d="M62.7253 44.5145C64.2778 42.6903 64.6238 40.1409 63.6109 37.9733C62.6007 35.8085 60.4145 34.4239 58.0096 34.4239C55.6047 34.4239 53.4183 35.8085 52.4054 37.9733C51.3925 40.1409 51.7385 42.6903 53.291 44.5145C49.2007 44.792 46.0235 48.1656 46.0179 52.2367V52.951C44.1304 54.2367 42.0936 55.2861 39.9516 56.0773L39.2874 52.918C39.2598 52.7806 39.293 52.6405 39.3788 52.5334L41.8196 49.3988H41.8169C42.2237 48.8768 42.423 48.2257 42.3704 47.5664L41.8722 40.973C41.8695 40.8933 41.8833 40.8109 41.9165 40.7367L44.9109 34.4977C45.5391 33.1982 45.0133 31.6406 43.7209 30.9812L40.2809 29.212C39.8575 28.9922 39.376 28.8933 38.8972 28.929L32.2858 29.4071C32.1557 29.4181 32.0257 29.3604 31.9454 29.2532L27.8357 23.7587C27.7748 23.6736 27.7499 23.5692 27.7638 23.4648L28.843 17.0472V17.0444C28.868 16.8961 28.9787 16.7752 29.1253 16.7368L35.568 15.0307C35.7534 14.9812 35.9499 15.0747 36.0246 15.2505L38.0006 19.7834H38.0034C38.139 20.0966 38.4157 20.3301 38.7506 20.4125L48.395 22.8054C48.7575 22.896 49.1339 22.907 49.502 22.8411L56.88 21.4922C57.3698 22.9976 57.7268 24.5443 57.9482 26.113C58.0478 26.7009 58.5985 27.1048 59.1935 27.0224C59.7885 26.9372 60.2092 26.4015 60.14 25.8081C58.9195 17.2229 54.0184 9.58305 46.6982 4.85479C39.3811 0.12674 30.3567 -1.2276 21.9571 1.14328C13.5582 3.51142 6.6003 9.37396 2.878 17.2171C-0.841459 25.0603 -0.960482 34.118 2.54868 42.0547C6.06056 49.9942 12.8576 56.0355 21.1927 58.6236C29.5286 61.2143 38.5835 60.0962 46.0253 55.5632V57.1237C46.028 58.7116 47.3287 60 48.9311 60H67.0941C68.6965 60 69.9972 58.7116 70 57.1237V52.2363C69.9945 48.1649 66.8174 44.7912 62.724 44.5141L62.7253 44.5145ZM21.9331 3.44346L20.4553 9.25388C20.3307 9.73191 19.9959 10.1248 19.5392 10.3225L12.6039 13.317C12.3521 13.4269 12.0726 13.4681 11.7986 13.4407L8.03213 13.0451C11.5607 8.50113 16.4147 5.14915 21.933 3.44648L21.9331 3.44346ZM2.81858 24.1851L8.41158 25.284C8.83777 25.3691 9.16433 25.707 9.23355 26.1328L9.9088 30.3911H9.91157C10.1274 31.7565 11.1957 32.8334 12.5683 33.0669L18.0313 33.9955C18.3606 34.0532 18.6429 34.2647 18.7868 34.5642C18.9334 34.8636 18.9224 35.2153 18.7591 35.5064L17.0045 38.6383C16.88 38.8636 16.6724 39.0339 16.4289 39.1136L11.5139 40.7372C10.3931 41.1108 9.56558 42.0559 9.34971 43.2097L8.51946 47.5888H8.51669C3.13119 41.0531 1.03597 32.4405 2.81848 24.1824L2.81858 24.1851ZM10.3907 49.6359L11.5254 43.6112C11.5946 43.2431 11.8602 42.9436 12.2172 42.8255L17.1267 41.2019V41.1991C17.8988 40.9464 18.5464 40.4161 18.9422 39.7128L20.6995 36.592V36.5892C21.2143 35.6744 21.2502 34.57 20.7964 33.625C20.3425 32.6799 19.4542 32.0123 18.4164 31.8365L12.9534 30.897H12.9507C12.5134 30.8228 12.173 30.4794 12.1038 30.0426L11.4286 25.7844H11.4258C11.2099 24.4492 10.1777 23.3888 8.84102 23.1278L3.36973 22.0454C4.10866 19.592 5.18794 17.2541 6.57442 15.0976L11.5642 15.6195C11.697 15.6333 11.8326 15.6415 11.9654 15.6415C12.4885 15.6415 13.006 15.5344 13.4875 15.3256L20.4228 12.3311V12.3338C21.5048 11.8641 22.3075 10.9245 22.6008 9.78713L24.3775 2.81459C26.2925 2.41074 28.2463 2.20745 30.2058 2.20745C41.7042 2.20745 51.853 9.25166 56.0982 19.4108L49.091 20.691L49.0937 20.6937C49.0384 20.7047 48.983 20.7047 48.9305 20.6937L39.8146 18.43L38.0545 14.3942C37.537 13.2239 36.239 12.6003 34.9937 12.9245L28.5538 14.6278C27.5659 14.8888 26.8242 15.6992 26.6581 16.6992L25.5844 23.1223C25.4709 23.8146 25.6425 24.5234 26.0631 25.0866L30.1728 30.5811C30.7014 31.2926 31.5621 31.6855 32.4532 31.6168L39.0647 31.1361L39.0619 31.1388C39.1339 31.1333 39.2058 31.147 39.2695 31.18L42.7067 32.9492L42.7094 32.952C42.9364 33.0674 43.0305 33.3421 42.9198 33.5701L39.9254 39.8119V39.8091C39.7261 40.2294 39.6375 40.6937 39.6707 41.1553L40.1689 47.7487H40.1717C40.18 47.8668 40.144 47.9822 40.0748 48.0729L37.6229 51.1992C37.1413 51.8174 36.9587 52.614 37.1192 53.3751L37.8304 56.7652V56.7679C33.0317 58.1085 27.9586 58.1553 23.1353 56.9025C18.3117 55.6498 13.9111 53.1415 10.3914 49.6361L10.3907 49.6359ZM58.0104 36.6278C59.6128 36.6278 61.0574 37.5866 61.6718 39.0564C62.2862 40.529 61.9458 42.2212 60.8139 43.3449C59.6792 44.4713 57.9745 44.8064 56.4939 44.1965C55.0133 43.5894 54.0475 42.1553 54.0475 40.5619C54.0502 38.3916 55.8213 36.6307 58.0104 36.6278ZM67.788 57.1387C67.7852 57.5151 67.4753 57.8173 67.0961 57.8173H48.9197C48.5377 57.8173 48.2306 57.5151 48.2278 57.1387V52.2376C48.2306 49.1771 50.7295 46.6964 53.8125 46.6936H62.1979C65.2837 46.6936 67.7854 49.1744 67.7882 52.2376L67.788 57.1387Z" fill="#396EF1"/>
</svg>
