<svg width="70" height="70" viewBox="0 0 70 70" fill="none" xmlns="http://www.w3.org/2000/svg">
<path d="M69.3983 41.3271L65.6891 43.7571C64.8457 44.375 64.2297 45.3207 63.9366 46.3976C64.2133 47.1052 64.3747 47.8646 64.3747 48.6343C64.3747 49.7491 64.0716 50.833 63.4885 51.7718C62.4443 53.4493 60.6819 54.3709 58.8931 54.3709C58.4122 54.3709 57.9247 54.3019 57.4503 54.1673C57.4997 55.3064 57.223 56.473 56.5807 57.4981L56.4621 57.6845C55.4343 59.3447 53.6884 60.2456 51.9096 60.2456C51.2507 60.2456 50.5853 60.1041 49.9528 59.8487C49.9858 60.9981 49.6926 62.1371 49.0832 63.1174C48.2827 64.3979 47.0506 65.2747 45.6177 65.5819C45.2553 65.6613 44.893 65.6958 44.5372 65.6958C43.4666 65.6958 42.4191 65.361 41.5198 64.7155L41.1903 64.4842C41.1475 65.6406 40.7786 66.7451 40.0934 67.7012C39.0228 69.1957 37.3789 70 35.7088 70C34.6645 70 33.6104 69.6894 32.6715 69.037L13.783 55.8445C11.5067 54.2533 9.95509 51.8233 9.41486 49.0068C8.90096 46.311 7.13858 44.095 4.7009 43.0699L0.797284 41.4337C0.148329 41.1611 -0.1646 40.3913 0.0890355 39.7114C0.349274 39.0314 1.08389 38.7035 1.73282 38.9693L5.63644 40.6054C8.86473 41.9584 11.2037 44.8993 11.8856 48.4787C12.2908 50.598 13.4635 52.4274 15.1731 53.6285L34.0718 66.8281C35.3698 67.7393 37.1255 67.4218 38.0611 66.1136C38.5486 65.4233 38.743 64.5845 38.6079 63.7458C38.5058 63.1107 38.2192 62.5446 37.7976 62.0924L30.916 57.2049C30.883 57.1773 30.8567 57.1531 30.8237 57.1255C30.7908 57.0979 30.7578 57.0737 30.7216 57.0358C30.6953 57.0082 30.6722 56.9737 30.6458 56.9391C30.6195 56.9046 30.5865 56.8701 30.5602 56.8321C30.5437 56.7976 30.5273 56.7631 30.5108 56.7251C30.4943 56.6803 30.468 56.6457 30.4515 56.6009C30.435 56.5663 30.4251 56.5215 30.4185 56.487C30.4087 56.4421 30.3922 56.3972 30.3856 56.3558C30.3757 56.3109 30.3757 56.2764 30.3757 56.2315C30.3658 56.1867 30.3658 56.1418 30.3658 56.1004C30.3658 56.0555 30.3757 56.0106 30.3757 55.9692C30.3757 55.9243 30.3757 55.8898 30.3856 55.845C30.3955 55.8001 30.412 55.7552 30.4284 55.7138C30.4383 55.6793 30.4449 55.6344 30.4614 55.5999C30.4778 55.555 30.5042 55.5101 30.5272 55.4756C30.5437 55.4411 30.5602 55.4066 30.5767 55.3686C30.5931 55.341 30.6195 55.3169 30.636 55.2892C30.6689 55.2444 30.7018 55.1995 30.7381 55.165C30.748 55.1546 30.7644 55.1477 30.771 55.1305C30.8204 55.0856 30.8731 55.0338 30.9324 54.9993C30.9324 54.9993 30.9423 54.9993 30.9423 54.9889C31.0082 54.9441 31.0774 54.9095 31.1531 54.875C31.2289 54.8405 31.3047 54.8233 31.3903 54.806H31.4002C31.476 54.7887 31.5517 54.7784 31.6374 54.7784C31.6539 54.7784 31.6703 54.7784 31.6868 54.7887C31.7527 54.7887 31.812 54.7991 31.8812 54.806C31.9141 54.8164 31.9405 54.8233 31.9734 54.8336C32.0228 54.8509 32.0755 54.8612 32.1184 54.8785C32.1612 54.8957 32.1941 54.9234 32.2369 54.9406C32.2699 54.9579 32.3127 54.9751 32.3457 55.0027L32.3555 55.0131L38.7661 59.4933C38.9868 59.6452 39.1877 59.8212 39.3821 59.9973L42.9497 62.5239C43.5987 62.983 44.3761 63.1418 45.1337 62.983C45.9013 62.8242 46.5503 62.3548 46.9818 61.6748C47.4034 60.9948 47.5484 60.1802 47.387 59.3864C47.2256 58.5925 46.771 57.909 46.1121 57.4776L37.7284 51.9377C37.6856 51.9101 37.6625 51.8859 37.6263 51.8479C37.5934 51.8203 37.5604 51.7962 37.534 51.7686C37.5011 51.734 37.4748 51.6995 37.4484 51.6615C37.4221 51.627 37.399 51.5994 37.3726 51.5649C37.3463 51.5304 37.3298 51.4855 37.3133 51.451C37.2969 51.4165 37.2705 51.382 37.254 51.344C37.2376 51.3095 37.2277 51.2646 37.2211 51.2301C37.2046 51.1852 37.1882 51.1403 37.1783 51.0989C37.1684 51.0644 37.1684 51.0299 37.1618 50.9919C37.1519 50.9401 37.1453 50.8953 37.1453 50.84C37.1453 50.8055 37.1552 50.7779 37.1552 50.7434C37.1552 50.6916 37.1552 50.6364 37.1651 50.5846C37.175 50.557 37.1816 50.5328 37.1915 50.4949C37.2013 50.4431 37.2178 50.381 37.2343 50.3257C37.2442 50.2912 37.2672 50.2636 37.2837 50.2291C37.31 50.1842 37.3265 50.1324 37.3496 50.0876C37.3661 50.06 37.3825 50.0358 37.4089 50.0185C37.4418 49.9737 37.4748 49.9219 37.511 49.8874C37.511 49.8874 37.5209 49.8874 37.5209 49.877C37.8668 49.5042 38.407 49.3731 38.8715 49.5595C38.8979 49.5698 38.9143 49.5871 38.9374 49.594C38.9967 49.6216 39.0461 49.6457 39.0988 49.6837L50.4406 57.1427C51.7648 58.0091 53.5371 57.6018 54.387 56.2316L54.5056 56.0452C55.3752 54.6576 54.9931 52.7833 53.6722 51.8755L43.0447 44.5856C42.4617 44.1887 42.2937 43.3672 42.6824 42.7493C42.7318 42.67 42.7845 42.5975 42.8438 42.5388C43.0974 42.273 43.4334 42.1419 43.7794 42.1591C44.0067 42.1695 44.2274 42.2281 44.4283 42.3697L57.3386 51.2333C58.7221 52.1515 60.534 51.7372 61.4036 50.3324C61.7166 49.8285 61.8846 49.2451 61.8846 48.6446C61.8846 48.1234 61.7594 47.609 61.5222 47.15C61.2949 46.6978 60.9655 46.3354 60.5538 46.0558L35.1852 28.6625C35.0238 28.5486 34.8294 28.5106 34.6383 28.5555C34.444 28.6004 34.2826 28.7143 34.1739 28.8903L31.331 33.4604C30.1517 35.3587 28.33 36.6669 26.2118 37.1364C24.0936 37.6059 21.9359 37.1709 20.1241 35.9352L19.7024 35.6453C18.622 34.9032 18.3189 33.3844 19.0205 32.2523L24.3769 23.637C23.4677 23.744 22.5717 23.9994 21.7547 24.4136C20.8851 24.8554 19.9495 25.0763 19.0041 25.0763C17.7984 25.0763 16.5927 24.7139 15.5551 24.0064L0.543264 13.0158C-0.0299284 12.6016 -0.174869 11.7697 0.230318 11.1692C0.625622 10.5686 1.41956 10.4168 1.99268 10.8413L16.9716 21.7965C18.0422 22.5283 19.4686 22.6284 20.648 22.0174C22.4203 21.1166 24.433 20.7541 26.3898 20.9578C27.0222 20.3848 27.7305 19.905 28.5243 19.5702L34.2661 17.1678C37.3792 15.8699 40.8776 16.0184 43.8723 17.5924L50.0127 20.8162C51.9101 21.8137 54.137 21.7619 55.9817 20.685L67.9492 10.875C68.496 10.4228 69.2999 10.5229 69.7281 11.1063C70.1596 11.6793 70.0641 12.5215 69.5074 12.9702L57.4733 22.8385C57.4239 22.873 57.3712 22.9076 57.3218 22.9455C54.7161 24.5091 51.5635 24.5989 48.8785 23.194L42.7381 19.9702C40.3927 18.7346 37.6453 18.6172 35.2076 19.6354L29.4658 22.0378C28.5138 22.4347 27.7035 23.1251 27.1467 24.0363L21.2534 33.5247L21.507 33.7076C22.7556 34.5636 24.2379 34.857 25.6906 34.5395C27.15 34.2219 28.3984 33.321 29.2154 32.0128L32.0583 27.4428C32.5294 26.6731 33.264 26.1519 34.1238 25.9655C34.9769 25.7791 35.8434 25.9482 36.578 26.4522L61.9035 43.8242C61.9892 43.8863 62.0814 43.9485 62.1572 44.0106C62.681 43.0372 63.4123 42.1985 64.2985 41.5461L68.0671 39.0816C68.6567 38.6915 69.4407 38.8883 69.813 39.5061C70.1753 40.124 69.9974 40.9351 69.3979 41.3252L69.3983 41.3271ZM35.0003 7.95262C35.6987 7.95262 36.2653 7.35893 36.2653 6.62719V1.32544C36.2653 0.59369 35.6987 0 35.0003 0C34.302 0 33.7354 0.59369 33.7354 1.32544V6.62719C33.7354 7.35893 34.302 7.95262 35.0003 7.95262ZM20.6143 12.8643C20.858 13.1198 21.1874 13.2544 21.507 13.2544C21.8265 13.2544 22.1559 13.1232 22.3997 12.8643C22.8971 12.3431 22.8971 11.5044 22.3997 10.9901L19.0265 7.45558C18.529 6.93439 17.7285 6.93439 17.2377 7.45558C16.7403 7.97678 16.7403 8.81557 17.2377 9.32984L20.6143 12.8643ZM48.4934 13.2544C48.8129 13.2544 49.1423 13.1232 49.3861 12.8643L52.7594 9.32984C53.2568 8.80864 53.2568 7.96985 52.7594 7.45558C52.2619 6.93439 51.4614 6.93439 50.9706 7.45558L47.5973 10.9901C47.0999 11.5113 47.0999 12.3501 47.5973 12.8643C47.8444 13.1198 48.1738 13.2544 48.4934 13.2544Z" fill="#396EF1"/>
</svg>
